<svg width="621" height="556" viewBox="0 0 621 556" fill="none" xmlns="http://www.w3.org/2000/svg">
<path d="M0 9.99998C0 4.47714 4.47715 0 10 0H607C612.523 0 617 4.47715 617 10V546C617 551.523 612.523 556 607 556H10C4.47715 556 0 551.523 0 546V9.99998Z" fill="white"/>
<g clip-path="url(#clip0_768_8484)">
<path d="M476 411H621V546C621 551.523 616.523 556 611 556H476V411Z" fill="white"/>
<path d="M766 556C766 584.678 757.496 612.713 741.563 636.558C725.63 660.403 702.984 678.988 676.489 689.963C649.994 700.937 620.839 703.809 592.712 698.214C564.585 692.619 538.748 678.809 518.47 658.53C498.191 638.252 484.381 612.415 478.786 584.288C473.191 556.161 476.063 527.006 487.037 500.511C498.012 474.016 516.597 451.37 540.442 435.437C564.287 419.504 592.322 411 621 411L621 483.5C606.661 483.5 592.644 487.752 580.721 495.718C568.799 503.685 559.506 515.008 554.019 528.255C548.531 541.503 547.096 556.08 549.893 570.144C552.69 584.208 559.595 597.126 569.735 607.265C579.874 617.405 592.792 624.31 606.856 627.107C620.92 629.904 635.497 628.469 648.745 622.981C661.992 617.494 673.315 608.201 681.282 596.279C689.248 584.356 693.5 570.339 693.5 556H766Z" fill="#0B2A49"/>
</g>
<defs>
<clipPath id="clip0_768_8484">
<path d="M476 411H621V546C621 551.523 616.523 556 611 556H476V411Z" fill="white"/>
</clipPath>
</defs>
</svg>
