<svg width="617" height="556" viewBox="0 0 617 556" fill="none" xmlns="http://www.w3.org/2000/svg">
<path d="M0 9.99998C0 4.47714 4.47715 0 10 0H607C612.523 0 617 4.47715 617 10V546C617 551.523 612.523 556 607 556H10C4.47715 556 0 551.523 0 546V9.99998Z" fill="white"/>
<g clip-path="url(#clip0_1766_1353)">
<path d="M145 411L145 556H10C4.47715 556 0 551.523 0 546L0 411H145Z" fill="white"/>
<path d="M0 701C-28.6783 701 -56.7126 692.496 -80.5577 676.563C-104.403 660.63 -122.988 637.984 -133.963 611.489C-144.937 584.994 -147.809 555.839 -142.214 527.712C-136.619 499.585 -122.809 473.748 -102.53 453.47C-82.2519 433.191 -56.4153 419.381 -28.2881 413.786C-0.16085 408.191 28.9938 411.063 55.4891 422.037C81.9844 433.012 104.63 451.597 120.563 475.442C136.496 499.287 145 527.322 145 556L72.5 556C72.5 541.661 68.2479 527.644 60.2815 515.721C52.3151 503.799 40.9922 494.506 27.7445 489.019C14.4969 483.531 -0.080425 482.096 -14.144 484.893C-28.2077 487.69 -41.1259 494.595 -51.2652 504.735C-61.4045 514.874 -68.3095 527.792 -71.1069 541.856C-73.9044 555.92 -72.4686 570.497 -66.9813 583.745C-61.4939 596.992 -52.2014 608.315 -40.2788 616.282C-28.3563 624.248 -14.3391 628.5 0 628.5L0 701Z" fill="#0B2A49"/>
</g>
<defs>
<clipPath id="clip0_1766_1353">
<path d="M145 411L145 556H10C4.47715 556 0 551.523 0 546L0 411H145Z" fill="white"/>
</clipPath>
</defs>
</svg>
