<svg width="20" height="18" viewBox="0 0 20 18" fill="none" xmlns="http://www.w3.org/2000/svg">
<path d="M18.1186 13.0535V3.17506C18.1186 2.19294 17.3166 1.46454 16.3426 1.54638H16.2935C14.5748 1.6937 11.964 2.56942 10.5072 3.48606L10.3681 3.57609C10.1307 3.72341 9.73788 3.72341 9.50054 3.57609L9.29593 3.45332C7.83912 2.54487 5.23651 1.67733 3.51781 1.5382C2.54388 1.45635 1.75 2.19294 1.75 3.16687V13.0535C1.75 13.8392 2.38838 14.5758 3.17407 14.674L3.41141 14.7067C5.18741 14.9441 7.92915 15.8444 9.50054 16.7037L9.53328 16.7201C9.75425 16.8428 10.1062 16.8428 10.319 16.7201C11.8904 15.8525 14.6403 14.9441 16.4245 14.7067L16.6945 14.674C17.4802 14.5758 18.1186 13.8392 18.1186 13.0535Z" stroke="#0B2A49" stroke-width="1.85842" stroke-linecap="round" stroke-linejoin="round"/>
</svg>
