<svg width="24" height="18" viewBox="0 0 24 18" fill="none" xmlns="http://www.w3.org/2000/svg">
<path d="M14.1818 6.43636V4.58182C14.7818 4.32727 15.3955 4.13636 16.0227 4.00909C16.65 3.88182 17.3091 3.81818 18 3.81818C18.4727 3.81818 18.9364 3.85455 19.3909 3.92727C19.8455 4 20.2909 4.09091 20.7273 4.2V5.94545C20.2909 5.78182 19.85 5.65909 19.4045 5.57727C18.9591 5.49545 18.4909 5.45455 18 5.45455C17.3091 5.45455 16.6455 5.54091 16.0091 5.71364C15.3727 5.88636 14.7636 6.12727 14.1818 6.43636ZM14.1818 12.4364V10.5818C14.7818 10.3273 15.3955 10.1364 16.0227 10.0091C16.65 9.88182 17.3091 9.81818 18 9.81818C18.4727 9.81818 18.9364 9.85455 19.3909 9.92727C19.8455 10 20.2909 10.0909 20.7273 10.2V11.9455C20.2909 11.7818 19.85 11.6591 19.4045 11.5773C18.9591 11.4955 18.4909 11.4545 18 11.4545C17.3091 11.4545 16.6455 11.5364 16.0091 11.7C15.3727 11.8636 14.7636 12.1091 14.1818 12.4364ZM14.1818 9.43636V7.58182C14.7818 7.32727 15.3955 7.13636 16.0227 7.00909C16.65 6.88182 17.3091 6.81818 18 6.81818C18.4727 6.81818 18.9364 6.85455 19.3909 6.92727C19.8455 7 20.2909 7.09091 20.7273 7.2V8.94545C20.2909 8.78182 19.85 8.65909 19.4045 8.57727C18.9591 8.49545 18.4909 8.45455 18 8.45455C17.3091 8.45455 16.6455 8.54091 16.0091 8.71364C15.3727 8.88636 14.7636 9.12727 14.1818 9.43636ZM6 13.0909C6.85455 13.0909 7.68636 13.1864 8.49545 13.3773C9.30455 13.5682 10.1091 13.8545 10.9091 14.2364V3.49091C10.1636 3.05455 9.37273 2.72727 8.53636 2.50909C7.7 2.29091 6.85455 2.18182 6 2.18182C5.34545 2.18182 4.69545 2.24545 4.05 2.37273C3.40455 2.5 2.78182 2.69091 2.18182 2.94545V13.7455C2.81818 13.5273 3.45 13.3636 4.07727 13.2545C4.70455 13.1455 5.34545 13.0909 6 13.0909ZM13.0909 14.2364C13.8909 13.8545 14.6955 13.5682 15.5045 13.3773C16.3136 13.1864 17.1455 13.0909 18 13.0909C18.6545 13.0909 19.2955 13.1455 19.9227 13.2545C20.55 13.3636 21.1818 13.5273 21.8182 13.7455V2.94545C21.2182 2.69091 20.5955 2.5 19.95 2.37273C19.3045 2.24545 18.6545 2.18182 18 2.18182C17.1455 2.18182 16.3 2.29091 15.4636 2.50909C14.6273 2.72727 13.8364 3.05455 13.0909 3.49091V14.2364ZM12 17.4545C11.1273 16.7636 10.1818 16.2273 9.16364 15.8455C8.14545 15.4636 7.09091 15.2727 6 15.2727C5.23636 15.2727 4.48636 15.3727 3.75 15.5727C3.01364 15.7727 2.30909 16.0545 1.63636 16.4182C1.25455 16.6182 0.886364 16.6091 0.531818 16.3909C0.177273 16.1727 0 15.8545 0 15.4364V2.29091C0 2.09091 0.05 1.9 0.15 1.71818C0.25 1.53636 0.4 1.4 0.6 1.30909C1.43636 0.872727 2.30909 0.545455 3.21818 0.327273C4.12727 0.109091 5.05455 0 6 0C7.05455 0 8.08636 0.136364 9.09545 0.409091C10.1045 0.681818 11.0727 1.09091 12 1.63636C12.9273 1.09091 13.8955 0.681818 14.9045 0.409091C15.9136 0.136364 16.9455 0 18 0C18.9455 0 19.8727 0.109091 20.7818 0.327273C21.6909 0.545455 22.5636 0.872727 23.4 1.30909C23.6 1.4 23.75 1.53636 23.85 1.71818C23.95 1.9 24 2.09091 24 2.29091V15.4364C24 15.8545 23.8227 16.1727 23.4682 16.3909C23.1136 16.6091 22.7455 16.6182 22.3636 16.4182C21.6909 16.0545 20.9864 15.7727 20.25 15.5727C19.5136 15.3727 18.7636 15.2727 18 15.2727C16.9091 15.2727 15.8545 15.4636 14.8364 15.8455C13.8182 16.2273 12.8727 16.7636 12 17.4545Z" fill="#82704A"/>
</svg>
