<svg width="40" height="40" viewBox="0 0 40 40" fill="none" xmlns="http://www.w3.org/2000/svg">
<path d="M36.6673 27.9V7.78336C36.6673 5.78336 35.034 4.30003 33.0507 4.4667H32.9507C29.4507 4.7667 24.134 6.55003 21.1673 8.4167L20.884 8.60003C20.4007 8.90003 19.6007 8.90003 19.1173 8.60003L18.7007 8.35003C15.734 6.50003 10.434 4.73336 6.93398 4.45003C4.95065 4.28336 3.33398 5.78336 3.33398 7.7667V27.9C3.33398 29.5 4.63398 31 6.23398 31.2L6.71732 31.2667C10.334 31.75 15.9173 33.5834 19.1173 35.3334L19.184 35.3667C19.634 35.6167 20.3507 35.6167 20.784 35.3667C23.984 33.6 29.584 31.75 33.2173 31.2667L33.7673 31.2C35.3673 31 36.6673 29.5 36.6673 27.9Z" stroke="#7B7045" stroke-width="2.5" stroke-linecap="round" stroke-linejoin="round"/>
<path d="M20 9.15002V34.15" stroke="#7B7045" stroke-width="2.5" stroke-linecap="round" stroke-linejoin="round"/>
<path d="M12.916 14.15H9.16602" stroke="#7B7045" stroke-width="2.5" stroke-linecap="round" stroke-linejoin="round"/>
<path d="M14.166 19.15H9.16602" stroke="#7B7045" stroke-width="2.5" stroke-linecap="round" stroke-linejoin="round"/>
</svg>
