<svg width="51" height="51" viewBox="0 0 51 51" fill="none" xmlns="http://www.w3.org/2000/svg">
<path d="M25.5003 50.9167C39.5049 50.9167 50.917 39.5047 50.917 25.5001C50.917 11.4955 39.5049 0.0834122 25.5003 0.0834122C11.4957 0.0834122 0.0836563 11.4955 0.0836563 25.5001C0.0836563 39.5047 11.4957 50.9167 25.5003 50.9167ZM18.4091 24.153L27.3812 15.1809C27.7624 14.7997 28.2453 14.6217 28.7282 14.6217C29.2112 14.6217 29.6941 14.7997 30.0753 15.1809C30.8124 15.918 30.8124 17.138 30.0753 17.8751L22.4503 25.5001L30.0753 33.1251C30.8124 33.8622 30.8124 35.0822 30.0753 35.8192C29.3382 36.5563 28.1182 36.5563 27.3812 35.8192L18.4091 26.8472C17.6466 26.1101 17.6466 24.8901 18.4091 24.153Z" fill="#0B294A"/>
</svg>
