<svg width="51" height="51" viewBox="0 0 51 51" fill="none" xmlns="http://www.w3.org/2000/svg">
<path d="M25.4997 0.083252C11.4951 0.083252 0.0830078 11.4953 0.0830078 25.4999C0.0830078 39.5045 11.4951 50.9166 25.4997 50.9166C39.5043 50.9166 50.9163 39.5045 50.9163 25.4999C50.9163 11.4953 39.5043 0.083252 25.4997 0.083252ZM32.5909 26.847L23.6188 35.8191C23.2376 36.2003 22.7547 36.3783 22.2718 36.3783C21.7888 36.3783 21.3059 36.2003 20.9247 35.8191C20.1876 35.082 20.1876 33.862 20.9247 33.1249L28.5497 25.4999L20.9247 17.8749C20.1876 17.1378 20.1876 15.9178 20.9247 15.1808C21.6618 14.4437 22.8818 14.4437 23.6188 15.1808L32.5909 24.1528C33.3534 24.8899 33.3534 26.1099 32.5909 26.847Z" fill="#0B294A"/>
</svg>
