<svg width="40" height="40" viewBox="0 0 40 40" fill="none" xmlns="http://www.w3.org/2000/svg">
<circle cx="20.3988" cy="20.4" r="12.4" transform="rotate(-180 20.3988 20.4)" fill="#7B7045"/>
<path d="M20.0007 3.33334C10.8173 3.33334 3.33398 10.8167 3.33398 20C3.33398 29.1833 10.8173 36.6667 20.0007 36.6667C29.184 36.6667 36.6673 29.1833 36.6673 20C36.6673 10.8167 29.184 3.33334 20.0007 3.33334ZM24.6507 20.8833L18.7673 26.7667C18.5173 27.0167 18.2007 27.1333 17.884 27.1333C17.5673 27.1333 17.2507 27.0167 17.0007 26.7667C16.5173 26.2833 16.5173 25.4833 17.0007 25L22.0007 20L17.0007 15C16.5173 14.5167 16.5173 13.7167 17.0007 13.2333C17.484 12.75 18.284 12.75 18.7673 13.2333L24.6507 19.1167C25.1507 19.6 25.1507 20.4 24.6507 20.8833Z" fill="white"/>
</svg>
