<svg width="35" height="35" viewBox="0 0 35 35" fill="none" xmlns="http://www.w3.org/2000/svg">
<path d="M17.4993 2.9165C9.46393 2.9165 2.91602 9.46442 2.91602 17.4998C2.91602 25.5353 9.46393 32.0832 17.4993 32.0832C25.5348 32.0832 32.0827 25.5353 32.0827 17.4998C32.0827 9.46442 25.5348 2.9165 17.4993 2.9165ZM22.3993 20.854C22.8223 21.2769 22.8223 21.9769 22.3993 22.3998C22.1806 22.6186 21.9035 22.7207 21.6264 22.7207C21.3493 22.7207 21.0723 22.6186 20.8535 22.3998L17.4993 19.0457L14.1452 22.3998C13.9264 22.6186 13.6493 22.7207 13.3723 22.7207C13.0952 22.7207 12.8181 22.6186 12.5993 22.3998C12.1764 21.9769 12.1764 21.2769 12.5993 20.854L15.9535 17.4998L12.5993 14.1457C12.1764 13.7228 12.1764 13.0228 12.5993 12.5998C13.0223 12.1769 13.7223 12.1769 14.1452 12.5998L17.4993 15.954L20.8535 12.5998C21.2764 12.1769 21.9764 12.1769 22.3993 12.5998C22.8223 13.0228 22.8223 13.7228 22.3993 14.1457L19.0452 17.4998L22.3993 20.854Z" fill="#0B2A49"/>
</svg>
