<svg width="24" height="24" viewBox="0 0 24 24" fill="none" xmlns="http://www.w3.org/2000/svg">
<g clip-path="url(#clip0_454_1509)">
<path d="M22.8226 0.400926H20.0168C19.8092 0.400926 19.641 0.569113 19.641 0.776723C19.641 0.984285 19.8091 1.15252 20.0168 1.15252H22.8226C23.0574 1.15252 23.2485 1.34358 23.2485 1.57843V7.61602H21.5951V2.78091C21.5951 2.57335 21.4269 2.40511 21.2193 2.40511C21.0117 2.40511 20.8435 2.5733 20.8435 2.78091V7.61597H20.3925V2.78091C20.3925 2.57335 20.2244 2.40511 20.0168 2.40511C19.8092 2.40511 19.641 2.5733 19.641 2.78091V7.61597H19.19V2.78091C19.19 2.57335 19.0218 2.40511 18.8142 2.40511C18.6067 2.40511 18.4384 2.5733 18.4384 2.78091V7.61597H17.9875V2.78091C17.9875 2.57335 17.8193 2.40511 17.6117 2.40511C17.4041 2.40511 17.2359 2.5733 17.2359 2.78091V7.61597H16.785V2.78091C16.785 2.57335 16.6168 2.40511 16.4092 2.40511C16.2016 2.40511 16.0334 2.5733 16.0334 2.78091V7.61597H14.7808V2.78091C14.7808 2.57335 14.6126 2.40511 14.405 2.40511C14.1974 2.40511 14.0292 2.5733 14.0292 2.78091V7.61597H13.5782V2.78091C13.5782 2.57335 13.41 2.40511 13.2024 2.40511C12.9949 2.40511 12.8266 2.5733 12.8266 2.78091V7.61597H12.3757V2.78091C12.3757 2.57335 12.2075 2.40511 11.9999 2.40511C11.7923 2.40511 11.6241 2.5733 11.6241 2.78091V7.61597H11.1732V2.78091C11.1732 2.57335 11.005 2.40511 10.7974 2.40511C10.5898 2.40511 10.4216 2.5733 10.4216 2.78091V7.61597H9.97064V2.78091C9.97064 2.57335 9.80245 2.40511 9.59484 2.40511C9.38723 2.40511 9.21905 2.5733 9.21905 2.78091V7.61597H8.76811V2.78091C8.76811 2.57335 8.59992 2.40511 8.39231 2.40511C8.1847 2.40511 8.01652 2.5733 8.01652 2.78091V7.61597H6.76392V2.78091C6.76392 2.57335 6.59574 2.40511 6.38813 2.40511C6.18056 2.40511 6.01233 2.5733 6.01233 2.78091V7.61597H5.56139V2.78091C5.56139 2.57335 5.3932 2.40511 5.18559 2.40511C4.97798 2.40511 4.8098 2.5733 4.8098 2.78091V7.61597H4.35886V2.78091C4.35886 2.57335 4.19067 2.40511 3.98306 2.40511C3.7755 2.40511 3.60727 2.5733 3.60727 2.78091V7.61597H3.15633V2.78091C3.15633 2.57335 2.98814 2.40511 2.78053 2.40511C2.57297 2.40511 2.40473 2.5733 2.40473 2.78091V7.61597H0.751594V1.57838C0.751594 1.34354 0.942656 1.15247 1.1775 1.15247H18.4134C18.621 1.15247 18.7892 0.984285 18.7892 0.776676C18.7892 0.569113 18.621 0.400879 18.4134 0.400879H1.1775C0.528234 0.400926 4.6875e-05 0.929113 4.6875e-05 1.57838V16.8101C4.6875e-05 17.0177 0.168234 17.1859 0.375844 17.1859C0.583406 17.1859 0.751641 17.0177 0.751641 16.8101V9.97088H2.40506V21.2193C2.40506 21.4269 2.57325 21.5951 2.78086 21.5951C2.98842 21.5951 3.15666 21.4269 3.15666 21.2193V9.97088H3.60759V18.0126C3.60759 18.2202 3.77578 18.3884 3.98339 18.3884C4.19095 18.3884 4.35919 18.2202 4.35919 18.0126V9.97088H4.81012V18.0126C4.81012 18.2202 4.97831 18.3884 5.18592 18.3884C5.39353 18.3884 5.56172 18.2202 5.56172 18.0126V9.97088H6.01266V18.0126C6.01266 18.2202 6.18084 18.3884 6.38845 18.3884C6.59606 18.3884 6.76425 18.2202 6.76425 18.0126V9.97088H8.01684V18.0126C8.01684 18.2202 8.18503 18.3884 8.39264 18.3884C8.60025 18.3884 8.76844 18.2202 8.76844 18.0126V9.97088H9.21938V18.0126C9.21938 18.2202 9.38756 18.3884 9.59517 18.3884C9.80278 18.3884 9.97097 18.2202 9.97097 18.0126V9.97088H10.4219V18.0126C10.4219 18.2202 10.5901 18.3884 10.7977 18.3884C11.0053 18.3884 11.1735 18.2202 11.1735 18.0126V9.97088H11.6244V18.0126C11.6244 18.2202 11.7926 18.3884 12.0002 18.3884C12.2078 18.3884 12.376 18.2202 12.376 18.0126V9.97088H12.827V18.0126C12.827 18.2202 12.9952 18.3884 13.2028 18.3884C13.4103 18.3884 13.5786 18.2202 13.5786 18.0126V9.97088H14.0295V18.0126C14.0295 18.2202 14.1977 18.3884 14.4053 18.3884C14.6129 18.3884 14.7811 18.2202 14.7811 18.0126V9.97088H16.0337V18.0126C16.0337 18.2202 16.2019 18.3884 16.4095 18.3884C16.617 18.3884 16.7853 18.2202 16.7853 18.0126V9.97088H17.2362V18.0126C17.2362 18.2202 17.4044 18.3884 17.612 18.3884C17.8196 18.3884 17.9878 18.2202 17.9878 18.0126V9.97088H18.4388V18.0126C18.4388 18.2202 18.6069 18.3884 18.8145 18.3884C19.0221 18.3884 19.1903 18.2202 19.1903 18.0126V9.97088H19.6413V18.0126C19.6413 18.2202 19.8095 18.3884 20.0171 18.3884C20.2246 18.3884 20.3929 18.2202 20.3929 18.0126V9.97088H20.8438V21.2193C20.8438 21.4269 21.012 21.5951 21.2196 21.5951C21.4272 21.5951 21.5954 21.4269 21.5954 21.2193V9.97088H23.2488V22.4218C23.2488 22.6567 23.0578 22.8477 22.8229 22.8477H1.1775C0.942656 22.8477 0.751594 22.6567 0.751594 22.4218V18.4135C0.751594 18.2059 0.583406 18.0377 0.375797 18.0377C0.168234 18.0377 0 18.2059 0 18.4135V22.4218C0 23.0711 0.528188 23.5993 1.17745 23.5993H22.8225C23.4718 23.5993 24 23.0711 24 22.4218V1.57838C24 0.929113 23.4719 0.400926 22.8226 0.400926ZM23.2485 9.21929H0.751594V8.36752H23.2485V9.21929H23.2485Z" fill="#7B7045"/>
<path d="M5.58658 18.8394H3.98322C3.77566 18.8394 3.60742 19.0075 3.60742 19.2152V21.2193C3.60742 21.4269 3.77561 21.5951 3.98322 21.5951H5.58658C5.79414 21.5951 5.96237 21.4269 5.96237 21.2193V19.2152C5.96233 19.0075 5.79414 18.8394 5.58658 18.8394ZM5.21078 20.8435H4.35902V19.5909H5.21078V20.8435Z" fill="#7B7045"/>
<path d="M8.39224 18.8394H6.78888C6.58132 18.8394 6.41309 19.0075 6.41309 19.2152V21.2193C6.41309 21.4269 6.58127 21.5951 6.78888 21.5951H8.39224C8.5998 21.5951 8.76804 21.4269 8.76804 21.2193V19.2152C8.76799 19.0075 8.5998 18.8394 8.39224 18.8394ZM8.01645 20.8435H7.16468V19.5909H8.01645V20.8435Z" fill="#7B7045"/>
<path d="M10.3963 18.8394C10.1887 18.8394 10.0205 19.0075 10.0205 19.2152V21.2193C10.0205 21.4269 10.1887 21.5951 10.3963 21.5951C10.6039 21.5951 10.7721 21.4269 10.7721 21.2193V19.2152C10.7721 19.0075 10.6039 18.8394 10.3963 18.8394Z" fill="#7B7045"/>
<path d="M13.6032 18.8394H11.9998C11.7923 18.8394 11.624 19.0075 11.624 19.2152V21.2193C11.624 21.4269 11.7922 21.5951 11.9998 21.5951H13.6032C13.8107 21.5951 13.979 21.4269 13.979 21.2193V19.2152C13.9789 19.0075 13.8107 18.8394 13.6032 18.8394ZM13.2274 20.8435H12.3756V19.5909H13.2274V20.8435Z" fill="#7B7045"/>
<path d="M15.2069 18.8394C14.9993 18.8394 14.8311 19.0075 14.8311 19.2152V21.2193C14.8311 21.4269 14.9992 21.5951 15.2069 21.5951C15.4144 21.5951 15.5826 21.4269 15.5826 21.2193V19.2152C15.5826 19.0075 15.4145 18.8394 15.2069 18.8394Z" fill="#7B7045"/>
<path d="M16.8104 18.8394C16.6028 18.8394 16.4346 19.0075 16.4346 19.2152V21.2193C16.4346 21.4269 16.6028 21.5951 16.8104 21.5951C17.0179 21.5951 17.1862 21.4269 17.1862 21.2193V19.2152C17.1861 19.0075 17.0179 18.8394 16.8104 18.8394Z" fill="#7B7045"/>
<path d="M20.0163 18.8394H18.4129C18.2053 18.8394 18.0371 19.0075 18.0371 19.2152V21.2193C18.0371 21.4269 18.2053 21.5951 18.4129 21.5951H20.0163C20.2238 21.5951 20.3921 21.4269 20.3921 21.2193V19.2152C20.3921 19.0075 20.2238 18.8394 20.0163 18.8394ZM19.6405 20.8435H18.7887V19.5909H19.6405V20.8435Z" fill="#7B7045"/>
</g>
<defs>
<clipPath id="clip0_454_1509">
<rect width="24" height="24" fill="white"/>
</clipPath>
</defs>
</svg>
