<svg width="40" height="40" viewBox="0 0 40 40" fill="none" xmlns="http://www.w3.org/2000/svg">
<path d="M35 11.6663V28.333C35 33.333 32.5 36.6663 26.6667 36.6663H13.3333C7.5 36.6663 5 33.333 5 28.333V11.6663C5 6.66634 7.5 3.33301 13.3333 3.33301H26.6667C32.5 3.33301 35 6.66634 35 11.6663Z" stroke="#2196F3" stroke-width="2.5" stroke-miterlimit="10" stroke-linecap="round" stroke-linejoin="round"/>
<path d="M25.8327 3.33301V16.433C25.8327 17.1663 24.966 17.533 24.4326 17.0496L20.5661 13.4831C20.2494 13.1831 19.7493 13.1831 19.4326 13.4831L15.5661 17.0496C15.0327 17.533 14.166 17.1663 14.166 16.433V3.33301H25.8327Z" stroke="#2196F3" stroke-width="2.5" stroke-miterlimit="10" stroke-linecap="round" stroke-linejoin="round"/>
<path d="M22.084 23.333H29.1673" stroke="#2196F3" stroke-width="2.5" stroke-miterlimit="10" stroke-linecap="round" stroke-linejoin="round"/>
<path d="M15 30H29.1667" stroke="#2196F3" stroke-width="2.5" stroke-miterlimit="10" stroke-linecap="round" stroke-linejoin="round"/>
</svg>
