<svg width="50" height="50" viewBox="0 0 50 50" fill="none" xmlns="http://www.w3.org/2000/svg">
<rect width="50" height="50" rx="5" fill="#82704A"/>
<path d="M15 36H17.1375L31.8 21.3375L29.6625 19.2L15 33.8625V36ZM12 39V32.625L31.8 12.8625C32.1 12.5875 32.4312 12.375 32.7938 12.225C33.1562 12.075 33.5375 12 33.9375 12C34.3375 12 34.725 12.075 35.1 12.225C35.475 12.375 35.8 12.6 36.075 12.9L38.1375 15C38.4375 15.275 38.6562 15.6 38.7937 15.975C38.9312 16.35 39 16.725 39 17.1C39 17.5 38.9312 17.8813 38.7937 18.2438C38.6562 18.6063 38.4375 18.9375 38.1375 19.2375L18.375 39H12ZM30.7125 20.2875L29.6625 19.2L31.8 21.3375L30.7125 20.2875Z" fill="white"/>
</svg>
