<svg width="40" height="40" viewBox="0 0 40 40" fill="none" xmlns="http://www.w3.org/2000/svg">
<g clip-path="url(#clip0_353_3125)">
<path d="M34.0041 30.5617C36.567 27.3445 38.1071 23.2623 38.1059 18.8337C38.1071 13.6395 35.9943 8.91734 32.5897 5.51625C29.1877 2.11102 24.4655 -0.00124945 19.2716 5.54488e-07C14.0773 -0.00124945 9.35555 2.11102 5.95383 5.51625C2.54883 8.91734 0.436329 13.6395 0.4375 18.8337C0.436329 24.0273 2.54883 28.7495 5.95383 32.1513C9.35555 35.5565 14.0774 37.6688 19.2716 37.6675C23.252 37.6688 26.9523 36.4245 29.9967 34.3128L35.6848 40L39.5639 36.1209L34.0041 30.5617ZM29.5716 29.1341C26.929 31.7726 23.3008 33.399 19.2716 33.4002C15.2423 33.399 11.6141 31.7726 8.97117 29.1341C6.3318 26.4908 4.70594 22.8629 4.70477 18.8337C4.70594 14.8045 6.3318 11.1766 8.97117 8.53344C11.6141 5.89438 15.2423 4.26852 19.2716 4.26734C23.3008 4.26852 26.9289 5.89438 29.5716 8.53344C32.2116 11.1766 33.8374 14.8046 33.8386 18.8337C33.8374 22.863 32.2116 26.4908 29.5716 29.1341Z" fill="#2196F3"/>
<path d="M12.1822 18.3679L11.7372 18.306C10.5999 18.1452 10.1918 17.75 10.1918 17.1689C10.1918 16.5135 10.6614 16.0437 11.5146 16.0437C12.2191 16.0437 12.8496 16.2539 13.5297 16.6992C13.5914 16.7361 13.6533 16.7236 13.7027 16.6617L14.2962 15.7473C14.3457 15.6729 14.3332 15.6235 14.2712 15.574C13.6039 15.0675 12.6025 14.7334 11.5518 14.7334C9.82082 14.7334 8.70816 15.7472 8.70816 17.2678C8.70816 18.6644 9.62316 19.4437 11.2425 19.6657L11.6875 19.7276C12.8496 19.8884 13.2205 20.2843 13.2205 20.8897C13.2205 21.5946 12.6395 22.1012 11.6381 22.1012C10.6987 22.1012 9.89496 21.644 9.35113 21.2112C9.30176 21.1618 9.22762 21.1618 9.17816 21.2237L8.41168 22.1137C8.3623 22.1756 8.38699 22.2494 8.43637 22.2995C9.09152 22.9174 10.2905 23.4115 11.5271 23.4115C13.6161 23.4115 14.6918 22.2995 14.6918 20.8034C14.6918 19.3567 13.8014 18.5906 12.1822 18.3679Z" fill="#2196F3"/>
<path d="M21.5284 14.8691H16.2622C16.188 14.8691 16.1387 14.9185 16.1387 14.993V23.152C16.1387 23.2264 16.188 23.2758 16.2622 23.2758H21.5284C21.6029 23.2758 21.6523 23.2264 21.6523 23.152V22.0893C21.6523 22.0149 21.6029 21.9655 21.5284 21.9655H17.6716L17.5974 21.891V19.7651L17.6716 19.6907H20.9227C20.9971 19.6907 21.0466 19.6412 21.0466 19.5668V18.5036C21.0466 18.4298 20.9971 18.3804 20.9227 18.3804H17.6716L17.5974 18.3059V16.2539L17.6716 16.1801H21.5284C21.6029 16.1801 21.6523 16.1301 21.6523 16.0562V14.993C21.6523 14.9185 21.6029 14.8691 21.5284 14.8691Z" fill="#2196F3"/>
<path d="M26.1289 14.7334C24.6825 14.7334 23.5946 15.4258 23.1621 16.7611C22.9888 17.2802 22.9395 17.75 22.9395 19.0727C22.9395 20.3955 22.9888 20.8652 23.1621 21.3843C23.5946 22.7196 24.6826 23.4114 26.1289 23.4114C27.588 23.4114 28.6751 22.7196 29.1085 21.3843C29.2812 20.8652 29.3312 20.3955 29.3312 19.0727C29.3312 17.7499 29.2812 17.2802 29.1085 16.7611C28.6751 15.4258 27.588 14.7334 26.1289 14.7334ZM27.6988 21.0011C27.4641 21.6809 26.9701 22.1012 26.1288 22.1012C25.3007 22.1012 24.806 21.6809 24.5712 21.0011C24.4723 20.6921 24.4229 20.2593 24.4229 19.0728C24.4229 17.8732 24.4723 17.4529 24.5712 17.1439C24.8061 16.464 25.3008 16.0437 26.1288 16.0437C26.9701 16.0437 27.4641 16.464 27.6988 17.1439C27.7976 17.4529 27.8475 17.8732 27.8475 19.0728C27.8476 20.2593 27.7976 20.692 27.6988 21.0011Z" fill="#2196F3"/>
</g>
<defs>
<clipPath id="clip0_353_3125">
<rect width="40" height="40" fill="white"/>
</clipPath>
</defs>
</svg>
