<svg width="40" height="40" viewBox="0 0 40 40" fill="none" xmlns="http://www.w3.org/2000/svg">
<path d="M16.6673 9.99992H23.334C26.6673 9.99992 26.6673 8.33325 26.6673 6.66659C26.6673 3.33325 25.0007 3.33325 23.334 3.33325H16.6673C15.0007 3.33325 13.334 3.33325 13.334 6.66659C13.334 9.99992 15.0007 9.99992 16.6673 9.99992Z" stroke="#7E57C2" stroke-width="2.5" stroke-miterlimit="10" stroke-linecap="round" stroke-linejoin="round"/>
<path d="M23.3333 36.6666H15C6.66667 36.6666 5 33.3333 5 26.6666V16.6666C5 9.06662 7.78333 6.99995 13.3333 6.69995" stroke="#7E57C2" stroke-width="2.5" stroke-miterlimit="10" stroke-linecap="round" stroke-linejoin="round"/>
<path d="M26.666 6.69995C32.216 6.99995 34.9993 9.04995 34.9993 16.6666V24.9999" stroke="#7E57C2" stroke-width="2.5" stroke-miterlimit="10" stroke-linecap="round" stroke-linejoin="round"/>
<path d="M25 31.6667V26.6667H30" stroke="#7E57C2" stroke-width="2.5" stroke-miterlimit="10" stroke-linecap="round" stroke-linejoin="round"/>
<path d="M34.9978 36.6667L25.0645 26.7334" stroke="#7E57C2" stroke-width="2.5" stroke-miterlimit="10" stroke-linecap="round" stroke-linejoin="round"/>
</svg>
