<svg width="30" height="30" viewBox="0 0 30 30" fill="none" xmlns="http://www.w3.org/2000/svg">
<path d="M21.25 26.5625H8.75C4.1875 26.5625 1.5625 23.9375 1.5625 19.375V10.625C1.5625 6.0625 4.1875 3.4375 8.75 3.4375H21.25C25.8125 3.4375 28.4375 6.0625 28.4375 10.625V19.375C28.4375 23.9375 25.8125 26.5625 21.25 26.5625ZM8.75 5.3125C5.175 5.3125 3.4375 7.05 3.4375 10.625V19.375C3.4375 22.95 5.175 24.6875 8.75 24.6875H21.25C24.825 24.6875 26.5625 22.95 26.5625 19.375V10.625C26.5625 7.05 24.825 5.3125 21.25 5.3125H8.75Z" fill="#7B7045"/>
<path d="M14.9995 16.0875C13.9495 16.0875 12.887 15.7625 12.0745 15.1L8.16198 11.975C7.76198 11.65 7.68698 11.0625 8.01198 10.6625C8.33698 10.2625 8.92449 10.1875 9.32449 10.5125L13.237 13.6375C14.187 14.4 15.7995 14.4 16.7495 13.6375L20.662 10.5125C21.062 10.1875 21.662 10.25 21.9745 10.6625C22.2995 11.0625 22.237 11.6625 21.8245 11.975L17.912 15.1C17.112 15.7625 16.0495 16.0875 14.9995 16.0875Z" fill="#7B7045"/>
</svg>
