<svg width="27" height="18" viewBox="0 0 27 18" fill="none" xmlns="http://www.w3.org/2000/svg">
<path d="M3.80633 -0.00012207H23.6813C25.5563 -0.00012207 26.5013 0.884878 26.5013 2.68488V15.3149C26.5013 17.0999 25.5563 17.9999 23.6813 17.9999H3.80633C1.93133 17.9999 0.986328 17.0999 0.986328 15.3149V2.68488C0.986328 0.884878 1.93133 -0.00012207 3.80633 -0.00012207ZM13.7363 12.8999L23.8463 4.60488C24.2063 4.30488 24.4913 3.61488 24.0413 2.99988C23.6063 2.38488 22.8113 2.36988 22.2863 2.74488L13.7363 8.53488L5.20133 2.74488C4.67633 2.36988 3.88133 2.38488 3.44633 2.99988C2.99633 3.61488 3.28133 4.30488 3.64133 4.60488L13.7363 12.8999Z" fill="#7B7045"/>
</svg>
