<svg width="22" height="22" viewBox="0 0 22 22" fill="none" xmlns="http://www.w3.org/2000/svg">
<path d="M4.12936 4.2666H18.2627C19.596 4.2666 20.268 4.89593 20.268 6.17593V15.1573C20.268 16.4266 19.596 17.0666 18.2627 17.0666H4.12936C2.79602 17.0666 2.12402 16.4266 2.12402 15.1573V6.17593C2.12402 4.89593 2.79602 4.2666 4.12936 4.2666ZM11.1907 13.4399L18.38 7.54127C18.636 7.32793 18.8387 6.83727 18.5187 6.39993C18.2094 5.9626 17.644 5.95193 17.2707 6.2186L11.1907 10.3359L5.12136 6.2186C4.74802 5.95193 4.18269 5.9626 3.87336 6.39993C3.55336 6.83727 3.75602 7.32793 4.01202 7.54127L11.1907 13.4399Z" fill="white"/>
</svg>
