<svg width="35" height="35" viewBox="0 0 35 35" fill="none" xmlns="http://www.w3.org/2000/svg">
<path d="M17.5003 31.8632C25.5545 31.8632 32.0837 25.3788 32.0837 17.3799C32.0837 9.38105 25.5545 2.89667 17.5003 2.89667C9.44617 2.89667 2.91699 9.38105 2.91699 17.3799C2.91699 25.3788 9.44617 31.8632 17.5003 31.8632Z" stroke="#0B2A49" stroke-width="2" stroke-linecap="round" stroke-linejoin="round"/>
<path d="M11.6667 4.34497H13.125C10.2813 12.8032 10.2813 21.9566 13.125 30.4149H11.6667" stroke="#0B2A49" stroke-width="2" stroke-linecap="round" stroke-linejoin="round"/>
<path d="M21.875 4.34497C24.7187 12.8032 24.7187 21.9566 21.875 30.4149" stroke="#0B2A49" stroke-width="2" stroke-linecap="round" stroke-linejoin="round"/>
<path d="M4.375 23.1732V21.7249C12.8917 24.5492 22.1083 24.5492 30.625 21.7249V23.1732" stroke="#0B2A49" stroke-width="2" stroke-linecap="round" stroke-linejoin="round"/>
<path d="M4.375 13.035C12.8917 10.2107 22.1083 10.2107 30.625 13.035" stroke="#0B2A49" stroke-width="2" stroke-linecap="round" stroke-linejoin="round"/>
</svg>
