<svg width="23" height="22" viewBox="0 0 23 22" fill="none" xmlns="http://www.w3.org/2000/svg">
<g clip-path="url(#clip0_461_15006)">
<path d="M11.5581 7.76446C9.53902 7.76446 7.91045 9.36482 7.91045 11.3489C7.91045 13.3329 9.53902 14.9333 11.5581 14.9333C13.5771 14.9333 15.2057 13.3329 15.2057 11.3489C15.2057 9.36482 13.5771 7.76446 11.5581 7.76446ZM11.5581 13.6792C10.2533 13.6792 9.18664 12.6342 9.18664 11.3489C9.18664 10.0636 10.2501 9.01854 11.5581 9.01854C12.866 9.01854 13.9295 10.0636 13.9295 11.3489C13.9295 12.6342 12.8628 13.6792 11.5581 13.6792ZM16.2057 7.61784C16.2057 8.08266 15.8247 8.45389 15.3549 8.45389C14.8819 8.45389 14.5041 8.07954 14.5041 7.61784C14.5041 7.15614 14.885 6.78179 15.3549 6.78179C15.8247 6.78179 16.2057 7.15614 16.2057 7.61784ZM18.6216 8.46637C18.5676 7.34644 18.3073 6.35441 17.4723 5.53707C16.6406 4.71974 15.6311 4.46393 14.4914 4.40778C13.3168 4.34226 9.79616 4.34226 8.62156 4.40778C7.48505 4.46081 6.47553 4.71662 5.64061 5.53395C4.80569 6.35129 4.54855 7.34332 4.49141 8.46325C4.42474 9.6175 4.42474 13.0771 4.49141 14.2314C4.54537 15.3513 4.80569 16.3434 5.64061 17.1607C6.47553 17.978 7.48188 18.2338 8.62156 18.29C9.79616 18.3555 13.3168 18.3555 14.4914 18.29C15.6311 18.237 16.6406 17.9811 17.4723 17.1607C18.3041 16.3434 18.5644 15.3513 18.6216 14.2314C18.6882 13.0771 18.6882 9.62062 18.6216 8.46637ZM17.1041 15.4699C16.8565 16.0813 16.3771 16.5524 15.7517 16.7988C14.8152 17.1638 12.593 17.0796 11.5581 17.0796C10.5231 17.0796 8.29775 17.1607 7.36442 16.7988C6.7422 16.5555 6.26283 16.0844 6.01204 15.4699C5.64061 14.5496 5.72633 12.3659 5.72633 11.3489C5.72633 10.3319 5.64379 8.14505 6.01204 7.22789C6.25966 6.61645 6.73902 6.14539 7.36442 5.89894C8.30093 5.53395 10.5231 5.61818 11.5581 5.61818C12.593 5.61818 14.8184 5.53707 15.7517 5.89894C16.3739 6.14227 16.8533 6.61333 17.1041 7.22789C17.4755 8.14817 17.3898 10.3319 17.3898 11.3489C17.3898 12.3659 17.4755 14.5527 17.1041 15.4699Z" fill="white"/>
</g>
<defs>
<clipPath id="clip0_461_15006">
<rect width="14.2222" height="15.9723" fill="white" transform="translate(4.44336 3.36572)"/>
</clipPath>
</defs>
</svg>
