<svg width="24" height="24" viewBox="0 0 24 24" fill="none" xmlns="http://www.w3.org/2000/svg">
<path d="M12 12.0012C14.7614 12.0012 17 9.76238 17 7.00069C17 4.23899 14.7614 2.0002 12 2.0002C9.23858 2.0002 7 4.23899 7 7.00069C7 9.76238 9.23858 12.0012 12 12.0012Z" stroke="#82704A" stroke-width="2" stroke-linecap="round" stroke-linejoin="round"/>
<path d="M19.2091 15.7416L15.669 19.282C15.529 19.422 15.3991 19.682 15.3691 19.872L15.1791 21.2221C15.1091 21.7121 15.4491 22.0522 15.9391 21.9822L17.289 21.7922C17.479 21.7622 17.7491 21.6322 17.8791 21.4921L21.419 17.9518C22.029 17.3418 22.319 16.6316 21.419 15.7316C20.529 14.8415 19.8191 15.1315 19.2091 15.7416Z" stroke="#82704A" stroke-width="2" stroke-miterlimit="10" stroke-linecap="round" stroke-linejoin="round"/>
<path d="M18.6992 16.2516C18.9992 17.3317 19.8392 18.1718 20.9192 18.4718" stroke="#82704A" stroke-width="2" stroke-miterlimit="10" stroke-linecap="round" stroke-linejoin="round"/>
<path d="M3.41016 22.0022C3.41016 18.1318 7.26018 15.0015 12.0002 15.0015C13.0402 15.0015 14.0402 15.1515 14.9702 15.4315" stroke="#82704A" stroke-width="2" stroke-linecap="round" stroke-linejoin="round"/>
</svg>
