<svg width="30" height="30" viewBox="0 0 30 30" fill="none" xmlns="http://www.w3.org/2000/svg">
<path d="M14.9996 17.7125C12.3371 17.7125 10.1621 15.55 10.1621 12.875C10.1621 10.2 12.3371 8.05 14.9996 8.05C17.6621 8.05 19.8371 10.2125 19.8371 12.8875C19.8371 15.5625 17.6621 17.7125 14.9996 17.7125ZM14.9996 9.925C13.3746 9.925 12.0371 11.25 12.0371 12.8875C12.0371 14.525 13.3621 15.85 14.9996 15.85C16.6371 15.85 17.9621 14.525 17.9621 12.8875C17.9621 11.25 16.6246 9.925 14.9996 9.925Z" fill="#7B7045"/>
<path d="M15.0001 28.45C13.1501 28.45 11.2876 27.75 9.8376 26.3625C6.1501 22.8125 2.0751 17.15 3.6126 10.4125C5.0001 4.3 10.3376 1.5625 15.0001 1.5625C15.0001 1.5625 15.0001 1.5625 15.0126 1.5625C19.6751 1.5625 25.0126 4.3 26.4001 10.425C27.9251 17.1625 23.8501 22.8125 20.1626 26.3625C18.7126 27.75 16.8501 28.45 15.0001 28.45ZM15.0001 3.4375C11.3626 3.4375 6.6876 5.375 5.4501 10.825C4.1001 16.7125 7.8001 21.7875 11.1501 25C13.3126 27.0875 16.7001 27.0875 18.8626 25C22.2001 21.7875 25.9001 16.7125 24.5751 10.825C23.3251 5.375 18.6376 3.4375 15.0001 3.4375Z" fill="#7B7045"/>
</svg>
