<svg width="30" height="30" viewBox="0 0 30 30" fill="none" xmlns="http://www.w3.org/2000/svg">
<g clip-path="url(#clip0_1956_4976)">
<path d="M25.7754 10.5626C24.4629 4.78756 19.4254 2.18756 15.0004 2.18756C15.0004 2.18756 15.0004 2.18756 14.9879 2.18756C10.5754 2.18756 5.52536 4.77506 4.21286 10.5501C2.75036 17.0001 6.70036 22.4626 10.2754 25.9001C11.6004 27.1751 13.3004 27.8126 15.0004 27.8126C16.7004 27.8126 18.4004 27.1751 19.7129 25.9001C23.2879 22.4626 27.2379 17.0126 25.7754 10.5626ZM15.0004 16.8251C12.8254 16.8251 11.0629 15.0626 11.0629 12.8876C11.0629 10.7126 12.8254 8.95006 15.0004 8.95006C17.1754 8.95006 18.9379 10.7126 18.9379 12.8876C18.9379 15.0626 17.1754 16.8251 15.0004 16.8251Z" fill="#7B7045"/>
</g>
<defs>
<clipPath id="clip0_1956_4976">
<rect width="30" height="30" fill="white"/>
</clipPath>
</defs>
</svg>
