<?xml version="1.0" encoding="iso-8859-1"?>
<!-- Uploaded to: SVG Repo, www.svgrepo.com, Generator: SVG Repo Mixer Tools -->
<svg fill="#4CAF50" height="800px" width="800px" version="1.1" id="Layer_1" xmlns="http://www.w3.org/2000/svg" xmlns:xlink="http://www.w3.org/1999/xlink" 
	 viewBox="0 0 512.034 512.034" xml:space="preserve">
<g transform="translate(0 -1)">
	<g>
		<path d="M512.017,193.034c0-39.765-27.193-73.173-64-82.645V22.367c0-16.756-18.431-26.971-32.64-18.091L249.899,107.701H85.35
			c-11.782,0-21.333,9.551-21.333,21.333v42.667H21.35c-11.782,0-21.333,9.551-21.333,21.333c0,11.782,9.551,21.333,21.333,21.333
			h42.667v42.667c0,11.782,9.551,21.333,21.333,21.333h21.333v170.667c0,35.249,28.751,64,64,64c35.249,0,64-28.751,64-64V278.367
			h15.215l165.478,103.424c14.209,8.881,32.64-1.335,32.64-18.091v-88.021C484.824,266.207,512.017,232.799,512.017,193.034z
			 M106.684,150.367h128v85.333H213.35h-85.333h-21.333V150.367z M192.017,449.034c0,11.685-9.649,21.333-21.333,21.333
			c-11.685,0-21.333-9.649-21.333-21.333V278.367h42.667V449.034z M405.35,325.21l-128-80V140.858l128-80v68.176v128V325.21z
			 M448.017,229.994v-73.92c12.754,7.376,21.333,21.165,21.333,36.96S460.771,222.618,448.017,229.994z"/>
	</g>
</g>
</svg>