<svg width="40" height="40" viewBox="0 0 40 40" fill="none" xmlns="http://www.w3.org/2000/svg">
<path d="M15.834 22.9166C15.834 24.5332 17.084 25.8332 18.6173 25.8332H21.7506C23.084 25.8332 24.1673 24.6999 24.1673 23.2832C24.1673 21.7666 23.5007 21.2166 22.5173 20.8666L17.5007 19.1166C16.5173 18.7666 15.8507 18.2332 15.8507 16.6999C15.8507 15.2999 16.934 14.1499 18.2673 14.1499H21.4006C22.934 14.1499 24.184 15.4499 24.184 17.0666" stroke="#4CAF50" stroke-width="2.5" stroke-linecap="round" stroke-linejoin="round"/>
<path d="M20 12.5V27.5" stroke="#4CAF50" stroke-width="2.5" stroke-linecap="round" stroke-linejoin="round"/>
<path d="M36.6673 20.0002C36.6673 29.2002 29.2007 36.6668 20.0007 36.6668C10.8007 36.6668 3.33398 29.2002 3.33398 20.0002C3.33398 10.8002 10.8007 3.3335 20.0007 3.3335" stroke="#4CAF50" stroke-width="2.5" stroke-linecap="round" stroke-linejoin="round"/>
<path d="M36.6667 10.0002V3.3335H30" stroke="#4CAF50" stroke-width="2.5" stroke-linecap="round" stroke-linejoin="round"/>
<path d="M28.334 11.6668L36.6673 3.3335" stroke="#4CAF50" stroke-width="2.5" stroke-linecap="round" stroke-linejoin="round"/>
</svg>
