<svg width="40" height="40" viewBox="0 0 40 40" fill="none" xmlns="http://www.w3.org/2000/svg">
<path d="M20.0001 13.1499L18.2168 16.2499C17.8168 16.9332 18.1501 17.4999 18.9334 17.4999H21.0501C21.8501 17.4999 22.1668 18.0666 21.7668 18.7499L20.0001 21.8499" stroke="#4CAF50" stroke-width="2.5" stroke-linecap="round" stroke-linejoin="round"/>
<path d="M13.8329 30.0668V28.1335C9.99961 25.8168 6.84961 21.3001 6.84961 16.5001C6.84961 8.25013 14.4329 1.78346 22.9996 3.65013C26.7663 4.48346 30.0663 6.98346 31.7829 10.4335C35.2663 17.4335 31.5996 24.8668 26.2163 28.1168V30.0501C26.2163 30.5335 26.3996 31.6501 24.6163 31.6501H15.4329C13.5996 31.6668 13.8329 30.9501 13.8329 30.0668Z" stroke="#4CAF50" stroke-width="2.5" stroke-linecap="round" stroke-linejoin="round"/>
<path d="M14.166 36.6665C17.9827 35.5832 22.016 35.5832 25.8327 36.6665" stroke="#4CAF50" stroke-width="2.5" stroke-linecap="round" stroke-linejoin="round"/>
</svg>
