<svg width="32" height="32" viewBox="0 0 32 32" fill="none" xmlns="http://www.w3.org/2000/svg">
<path d="M24.7419 11.72C24.7419 13.6083 24.1819 15.3402 23.2183 16.7857C21.8119 18.8693 19.5851 20.3408 16.9936 20.7184C16.5509 20.7965 16.0951 20.8356 15.6263 20.8356C15.1575 20.8356 14.7017 20.7965 14.259 20.7184C11.6675 20.3408 9.44074 18.8693 8.03434 16.7857C7.0707 15.3402 6.51074 13.6083 6.51074 11.72C6.51074 6.68045 10.5867 2.60449 15.6263 2.60449C20.6659 2.60449 24.7419 6.68045 24.7419 11.72Z" stroke="#7B7045" stroke-width="1.95333" stroke-linecap="round" stroke-linejoin="round"/>
<path d="M27.6727 24.052L25.524 24.5598C25.0422 24.677 24.6646 25.0417 24.5604 25.5235L24.1046 27.4378C23.8572 28.4795 22.5289 28.7921 21.8388 27.9717L15.6272 20.8355L9.41556 27.9847C8.72538 28.8051 7.39711 28.4925 7.14969 27.4508L6.69391 25.5365C6.57671 25.0547 6.19907 24.677 5.73027 24.5729L3.5816 24.065C2.59191 23.8306 2.24031 22.5935 2.95653 21.8772L8.0352 16.7986C9.4416 18.8821 11.6684 20.3537 14.2598 20.7313C14.7026 20.8095 15.1584 20.8485 15.6272 20.8485C16.096 20.8485 16.5517 20.8095 16.9945 20.7313C19.5859 20.3537 21.8127 18.8821 23.2191 16.7986L28.2978 21.8772C29.014 22.5804 28.6624 23.8176 27.6727 24.052Z" stroke="#7B7045" stroke-width="1.95333" stroke-linecap="round" stroke-linejoin="round"/>
<path d="M16.382 7.78718L17.1503 9.32379C17.2544 9.53214 17.5279 9.74051 17.7753 9.77957L19.1687 10.014C20.0542 10.1572 20.2626 10.8083 19.6245 11.4464L18.5436 12.5272C18.3613 12.7096 18.2572 13.0612 18.3223 13.3216L18.6348 14.6629C18.8822 15.7177 18.3223 16.1344 17.3847 15.5744L16.0824 14.8061C15.848 14.6629 15.4574 14.6629 15.223 14.8061L13.9208 15.5744C12.9832 16.1214 12.4232 15.7177 12.6706 14.6629L12.9832 13.3216C13.0352 13.0742 12.9441 12.7096 12.7618 12.5272L11.6809 11.4464C11.0428 10.8083 11.2512 10.1702 12.1367 10.014L13.5301 9.77957C13.7645 9.74051 14.038 9.53214 14.1421 9.32379L14.9104 7.78718C15.2881 6.95375 15.9652 6.95375 16.382 7.78718Z" stroke="#7B7045" stroke-width="1.95333" stroke-linecap="round" stroke-linejoin="round"/>
</svg>
