<svg width="28" height="28" viewBox="0 0 28 28" fill="none" xmlns="http://www.w3.org/2000/svg">
<path d="M20.8125 27.4375C19.4 27.4375 17.9125 27.1 16.375 26.45C14.875 25.8125 13.3625 24.9375 11.8875 23.875C10.425 22.8 9.0125 21.6 7.675 20.2875C6.35 18.95 5.15 17.5375 4.0875 16.0875C3.0125 14.5875 2.15 13.0875 1.5375 11.6375C0.8875 10.0875 0.5625 8.5875 0.5625 7.175C0.5625 6.2 0.7375 5.275 1.075 4.4125C1.425 3.525 1.9875 2.7 2.75 1.9875C3.7125 1.0375 4.8125 0.5625 5.9875 0.5625C6.475 0.5625 6.975 0.675 7.4 0.875C7.8875 1.1 8.3 1.4375 8.6 1.8875L11.5 5.975C11.7625 6.3375 11.9625 6.6875 12.1 7.0375C12.2625 7.4125 12.35 7.7875 12.35 8.15C12.35 8.625 12.2125 9.0875 11.95 9.525C11.7625 9.8625 11.475 10.225 11.1125 10.5875L10.2625 11.475C10.275 11.5125 10.2875 11.5375 10.3 11.5625C10.45 11.825 10.75 12.275 11.325 12.95C11.9375 13.65 12.5125 14.2875 13.0875 14.875C13.825 15.6 14.4375 16.175 15.0125 16.65C15.725 17.25 16.1875 17.55 16.4625 17.6875L16.4375 17.75L17.35 16.85C17.7375 16.4625 18.1125 16.175 18.475 15.9875C19.1625 15.5625 20.0375 15.4875 20.9125 15.85C21.2375 15.9875 21.5875 16.175 21.9625 16.4375L26.1125 19.3875C26.575 19.7 26.9125 20.1 27.1125 20.575C27.3 21.05 27.3875 21.4875 27.3875 21.925C27.3875 22.525 27.25 23.125 26.9875 23.6875C26.725 24.25 26.4 24.7375 25.9875 25.1875C25.275 25.975 24.5 26.5375 23.6 26.9C22.7375 27.25 21.8 27.4375 20.8125 27.4375ZM5.9875 2.4375C5.3 2.4375 4.6625 2.7375 4.05 3.3375C3.475 3.875 3.075 4.4625 2.825 5.1C2.5625 5.75 2.4375 6.4375 2.4375 7.175C2.4375 8.3375 2.7125 9.6 3.2625 10.9C3.825 12.225 4.6125 13.6 5.6125 14.975C6.6125 16.35 7.75 17.6875 9 18.95C10.25 20.1875 11.6 21.3375 12.9875 22.35C14.3375 23.3375 15.725 24.1375 17.1 24.7125C19.2375 25.625 21.2375 25.8375 22.8875 25.15C23.525 24.8875 24.0875 24.4875 24.6 23.9125C24.8875 23.6 25.1125 23.2625 25.3 22.8625C25.45 22.55 25.525 22.225 25.525 21.9C25.525 21.7 25.4875 21.5 25.3875 21.275C25.35 21.2 25.275 21.0625 25.0375 20.9L20.8875 17.95C20.6375 17.775 20.4125 17.65 20.2 17.5625C19.925 17.45 19.8125 17.3375 19.3875 17.6C19.1375 17.725 18.9125 17.9125 18.6625 18.1625L17.7125 19.1C17.225 19.575 16.475 19.6875 15.9 19.475L15.5625 19.325C15.05 19.05 14.45 18.625 13.7875 18.0625C13.1875 17.55 12.5375 16.95 11.75 16.175C11.1375 15.55 10.525 14.8875 9.8875 14.15C9.3 13.4625 8.875 12.875 8.6125 12.3875L8.4625 12.0125C8.3875 11.725 8.3625 11.5625 8.3625 11.3875C8.3625 10.9375 8.525 10.5375 8.8375 10.225L9.775 9.25C10.025 9 10.2125 8.7625 10.3375 8.55C10.4375 8.3875 10.475 8.25 10.475 8.125C10.475 8.025 10.4375 7.875 10.375 7.725C10.2875 7.525 10.15 7.3 9.975 7.0625L7.075 2.9625C6.95 2.7875 6.8 2.6625 6.6125 2.575C6.4125 2.4875 6.2 2.4375 5.9875 2.4375ZM16.4375 17.7625L16.2375 18.6125L16.575 17.7375C16.5125 17.725 16.4625 17.7375 16.4375 17.7625Z" fill="#7B7045"/>
</svg>
