<svg width="22" height="22" viewBox="0 0 22 22" fill="none" xmlns="http://www.w3.org/2000/svg">
<g clip-path="url(#clip0_461_14996)">
<path d="M2.88431 4.79575L5.10306 2.57909C5.25957 2.42188 5.4456 2.29716 5.65046 2.21207C5.85532 2.12697 6.07498 2.0832 6.29681 2.08325C6.74889 2.08325 7.17389 2.26034 7.49264 2.57909L9.88014 4.96658C10.0373 5.1231 10.1621 5.30913 10.2472 5.51399C10.3323 5.71885 10.376 5.93851 10.376 6.16034C10.376 6.61242 10.1989 7.03742 9.88014 7.35617L8.13431 9.102C8.54297 10.0028 9.11114 10.8222 9.81139 11.5208C10.5099 12.2227 11.3293 12.7929 12.2301 13.2041L13.976 11.4583C14.1325 11.3011 14.3185 11.1763 14.5234 11.0912C14.7282 11.0061 14.9479 10.9624 15.1697 10.9624C15.6218 10.9624 16.0468 11.1395 16.3656 11.4583L18.7551 13.8437C18.9125 14.0005 19.0374 14.1868 19.1225 14.3921C19.2076 14.5973 19.2512 14.8173 19.251 15.0395C19.251 15.4916 19.0739 15.9166 18.7551 16.2353L16.5406 18.4499C16.0322 18.9603 15.3301 19.2499 14.6093 19.2499C14.4572 19.2499 14.3114 19.2374 14.1676 19.2124C11.3593 18.7499 8.57389 17.2562 6.32598 15.0103C4.08014 12.7666 2.58848 9.98325 2.11973 7.16658C1.97806 6.30617 2.26348 5.42075 2.88431 4.79575Z" fill="white"/>
</g>
<defs>
<clipPath id="clip0_461_14996">
<rect width="21.3333" height="21.3333" fill="white" transform="matrix(-1 0 0 1 21.334 0)"/>
</clipPath>
</defs>
</svg>
