<svg width="40" height="40" viewBox="0 0 40 40" fill="none" xmlns="http://www.w3.org/2000/svg">
<path d="M36.1009 17.4001L34.4676 24.3668C33.0676 30.3834 30.3009 32.8168 25.101 32.3168C24.2676 32.2501 23.3676 32.1001 22.4009 31.8668L19.601 31.2001C12.651 29.5501 10.501 26.1168 12.1343 19.1501L13.7676 12.1668C14.101 10.7501 14.501 9.51676 15.001 8.50009C16.951 4.46676 20.2676 3.38343 25.8343 4.70009L28.6176 5.3501C35.6009 6.98343 37.7343 10.4334 36.1009 17.4001Z" stroke="#FFC107" stroke-width="2.5" stroke-linecap="round" stroke-linejoin="round"/>
<path d="M25.1006 32.3169C24.0672 33.0169 22.7672 33.6002 21.1839 34.1169L18.5506 34.9836C11.9339 37.1169 8.45057 35.3336 6.30057 28.7169L4.16724 22.1336C2.0339 15.5169 3.80057 12.0169 10.4172 9.88358L13.0506 9.01691C13.7339 8.80024 14.3839 8.61691 15.0006 8.50024C14.5006 9.51691 14.1006 10.7502 13.7672 12.1669L12.1339 19.1502C10.5006 26.1169 12.6506 29.5502 19.6006 31.2002L22.4006 31.8669C23.3672 32.1002 24.2672 32.2502 25.1006 32.3169Z" stroke="#FFC107" stroke-width="2.5" stroke-linecap="round" stroke-linejoin="round"/>
<path d="M21.0684 14.2168L29.1517 16.2668" stroke="#FFC107" stroke-width="2.5" stroke-linecap="round" stroke-linejoin="round"/>
<path d="M19.4336 20.6665L24.2669 21.8998" stroke="#FFC107" stroke-width="2.5" stroke-linecap="round" stroke-linejoin="round"/>
</svg>
