<svg width="40" height="40" viewBox="0 0 40 40" fill="none" xmlns="http://www.w3.org/2000/svg">
<path d="M36.6673 27.8999V7.78324C36.6673 5.78324 35.034 4.29991 33.0507 4.46657H32.9507C29.4507 4.76657 24.134 6.54991 21.1673 8.41657L20.884 8.59991C20.4007 8.89991 19.6007 8.89991 19.1173 8.59991L18.7007 8.34991C15.734 6.49991 10.434 4.73324 6.93398 4.44991C4.95065 4.28324 3.33398 5.78324 3.33398 7.76657V27.8999C3.33398 29.4999 4.63398 30.9999 6.23398 31.1999L6.71732 31.2666C10.334 31.7499 15.9173 33.5832 19.1173 35.3332L19.184 35.3666C19.634 35.6166 20.3507 35.6166 20.784 35.3666C23.984 33.5999 29.584 31.7499 33.2173 31.2666L33.7673 31.1999C35.3673 30.9999 36.6673 29.4999 36.6673 27.8999Z" stroke="#FFC107" stroke-width="2.5" stroke-linecap="round" stroke-linejoin="round"/>
<path d="M20 9.1499V34.1499" stroke="#FFC107" stroke-width="2.5" stroke-linecap="round" stroke-linejoin="round"/>
<path d="M12.916 14.1499H9.16602" stroke="#FFC107" stroke-width="2.5" stroke-linecap="round" stroke-linejoin="round"/>
<path d="M14.166 19.1499H9.16602" stroke="#FFC107" stroke-width="2.5" stroke-linecap="round" stroke-linejoin="round"/>
</svg>
