<svg width="32" height="32" viewBox="0 0 32 32" fill="none" xmlns="http://www.w3.org/2000/svg">
<path d="M17.8791 4.57063L20.1711 9.15446C20.4836 9.79254 21.317 10.4046 22.0202 10.5218L26.1743 11.212C28.8308 11.6547 29.4559 13.582 27.5416 15.4833L24.3121 18.7128C23.7652 19.2597 23.4657 20.3145 23.635 21.0698L24.5595 25.0676C25.2888 28.232 23.6089 29.4561 20.8091 27.8023L16.9155 25.4973C16.2123 25.0806 15.0533 25.0806 14.3371 25.4973L10.4435 27.8023C7.6567 29.4561 5.96381 28.219 6.69306 25.0676L7.61763 21.0698C7.78692 20.3145 7.48741 19.2597 6.94048 18.7128L3.71097 15.4833C1.80972 13.582 2.42177 11.6547 5.0783 11.212L9.23239 10.5218C9.92257 10.4046 10.756 9.79254 11.0685 9.15446L13.3604 4.57063C14.6106 2.08339 16.642 2.08339 17.8791 4.57063Z" stroke="#7B7045" stroke-width="1.95333" stroke-linecap="round" stroke-linejoin="round"/>
</svg>
