<svg width="50" height="50" viewBox="0 0 50 50" fill="none" xmlns="http://www.w3.org/2000/svg">
<rect width="50" height="50" rx="5" fill="#82704A"/>
<path d="M24.875 37.5L30.5625 22.5H33.1875L38.875 37.5H36.25L34.9063 33.6875H28.8438L27.5 37.5H24.875ZM15 33.75L13.25 32L19.5625 25.6875C18.8333 24.9583 18.1719 24.125 17.5781 23.1875C16.9844 22.25 16.4375 21.1875 15.9375 20H18.5625C18.9792 20.8125 19.3958 21.5208 19.8125 22.125C20.2292 22.7292 20.7292 23.3333 21.3125 23.9375C22 23.25 22.7135 22.2865 23.4531 21.0469C24.1927 19.8073 24.75 18.625 25.125 17.5H11.25V15H20V12.5H22.5V15H31.25V17.5H27.625C27.1875 19 26.5313 20.5417 25.6563 22.125C24.7813 23.7083 23.9167 24.9167 23.0625 25.75L26.0625 28.8125L25.125 31.375L21.3125 27.4688L15 33.75ZM29.625 31.5H34.125L31.875 25.125L29.625 31.5Z" fill="white"/>
</svg>
