<svg width="40" height="40" viewBox="0 0 40 40" fill="none" xmlns="http://www.w3.org/2000/svg">
<path d="M13.3327 36.6667H26.6661C33.3661 36.6667 34.5661 33.9833 34.9161 30.7167L36.1661 17.3833C36.6161 13.3167 35.4494 10 28.3327 10H11.6661C4.54939 10 3.38272 13.3167 3.83272 17.3833L5.08272 30.7167C5.43272 33.9833 6.63272 36.6667 13.3327 36.6667Z" stroke="#4C8BF5" stroke-width="2.5" stroke-miterlimit="10" stroke-linecap="round" stroke-linejoin="round"/>
<path d="M13.334 10V8.66668C13.334 5.71668 13.334 3.33334 18.6673 3.33334H21.334C26.6673 3.33334 26.6673 5.71668 26.6673 8.66668V10" stroke="#4C8BF5" stroke-width="2.5" stroke-miterlimit="10" stroke-linecap="round" stroke-linejoin="round"/>
<path d="M23.3327 21.6667V23.3333C23.3327 23.35 23.3327 23.35 23.3327 23.3667C23.3327 25.1833 23.316 26.6667 19.9993 26.6667C16.6993 26.6667 16.666 25.2 16.666 23.3833V21.6667C16.666 20 16.666 20 18.3327 20H21.666C23.3327 20 23.3327 20 23.3327 21.6667Z" stroke="#4C8BF5" stroke-width="2.5" stroke-miterlimit="10" stroke-linecap="round" stroke-linejoin="round"/>
<path d="M36.084 18.3333C32.234 21.1333 27.834 22.8 23.334 23.3667" stroke="#4C8BF5" stroke-width="2.5" stroke-miterlimit="10" stroke-linecap="round" stroke-linejoin="round"/>
<path d="M4.36719 18.7833C8.11719 21.35 12.3505 22.9 16.6672 23.3833" stroke="#4C8BF5" stroke-width="2.5" stroke-miterlimit="10" stroke-linecap="round" stroke-linejoin="round"/>
</svg>
