<svg width="22" height="22" viewBox="0 0 22 22" fill="none" xmlns="http://www.w3.org/2000/svg">
<g clip-path="url(#clip0_461_15014)">
<path d="M19.332 6.65285C18.7329 6.90528 18.0974 7.07097 17.4467 7.14442C18.1245 6.75806 18.6449 6.14624 18.89 5.41727C18.2456 5.78092 17.5407 6.03713 16.8055 6.17483C16.2067 5.56813 15.3537 5.18896 14.4095 5.18896C12.5966 5.18896 11.1268 6.58675 11.1268 8.31075C11.1268 8.55546 11.1558 8.79369 11.2118 9.02224C8.48366 8.89201 6.06491 7.64918 4.44584 5.76042C4.16334 6.22149 4.00147 6.75782 4.00147 7.32987C4.00147 8.41298 4.58103 9.36848 5.46178 9.92834C4.9405 9.91282 4.43069 9.77892 3.97491 9.53782C3.97472 9.5509 3.97472 9.56398 3.97472 9.57711C3.97472 11.0897 5.10622 12.3515 6.60784 12.6383C6.12446 12.7633 5.61742 12.7816 5.12547 12.6918C5.54316 13.932 6.75547 14.8346 8.19184 14.8598C7.06841 15.6971 5.65297 16.1962 4.11509 16.1962C3.85009 16.1962 3.58884 16.1814 3.33203 16.1526C4.78472 17.0384 6.51016 17.5552 8.36391 17.5552C14.4018 17.5552 17.7035 12.7982 17.7035 8.67279C17.7035 8.53739 17.7004 8.40276 17.694 8.2689C18.3367 7.82708 18.8914 7.27983 19.332 6.65285Z" fill="white"/>
</g>
<defs>
<clipPath id="clip0_461_15014">
<rect width="16" height="12.4229" fill="white" transform="translate(3.33203 5.14014)"/>
</clipPath>
</defs>
</svg>
