<svg width="24" height="25" viewBox="0 0 24 25" fill="none" xmlns="http://www.w3.org/2000/svg">
<path d="M21.0802 9.03456V15.8745C21.0802 16.9945 20.4802 18.0346 19.5102 18.6046L13.5702 22.0346C12.6002 22.5946 11.4002 22.5946 10.4202 22.0346L4.48016 18.6046C3.51016 18.0446 2.91016 17.0045 2.91016 15.8745V9.03456C2.91016 7.91456 3.51016 6.87452 4.48016 6.30452L10.4202 2.87453C11.3902 2.31453 12.5902 2.31453 13.5702 2.87453L19.5102 6.30452C20.4802 6.87452 21.0802 7.90456 21.0802 9.03456Z" stroke="#7B7045" stroke-width="1.5" stroke-linecap="round" stroke-linejoin="round"/>
<path d="M11.9999 11.4545C13.2867 11.4545 14.3299 10.4113 14.3299 9.12451C14.3299 7.83769 13.2867 6.79456 11.9999 6.79456C10.7131 6.79456 9.66992 7.83769 9.66992 9.12451C9.66992 10.4113 10.7131 11.4545 11.9999 11.4545Z" stroke="#7B7045" stroke-width="1.5" stroke-linecap="round" stroke-linejoin="round"/>
<path d="M16 17.1145C16 15.3145 14.21 13.8546 12 13.8546C9.79 13.8546 8 15.3145 8 17.1145" stroke="#7B7045" stroke-width="1.5" stroke-linecap="round" stroke-linejoin="round"/>
</svg>
