<svg width="20" height="20" viewBox="0 0 20 20" fill="none" xmlns="http://www.w3.org/2000/svg">
<path d="M18.1186 14.0594V4.18092C18.1186 3.1988 17.3166 2.4704 16.3426 2.55224H16.2935C14.5748 2.69956 11.964 3.57528 10.5072 4.49192L10.3681 4.58195C10.1307 4.72926 9.73788 4.72926 9.50054 4.58195L9.29593 4.45918C7.83912 3.55072 5.23651 2.68319 3.51781 2.54405C2.54388 2.46221 1.75 3.1988 1.75 4.17273V14.0594C1.75 14.8451 2.38838 15.5817 3.17407 15.6799L3.41141 15.7126C5.18741 15.95 7.92915 16.8502 9.50054 17.7096L9.53328 17.7259C9.75425 17.8487 10.1062 17.8487 10.319 17.7259C11.8904 16.8584 14.6403 15.95 16.4245 15.7126L16.6945 15.6799C17.4802 15.5817 18.1186 14.8451 18.1186 14.0594Z" stroke="#0B2A49" stroke-width="1.85842" stroke-linecap="round" stroke-linejoin="round"/>
<path d="M9.93457 4.85205V17.1285" stroke="#0B2A49" stroke-width="1.85842" stroke-linecap="round" stroke-linejoin="round"/>
<path d="M6.4567 7.30737H4.61523" stroke="#0B2A49" stroke-width="1.85842" stroke-linecap="round" stroke-linejoin="round"/>
<path d="M7.07053 9.7627H4.61523" stroke="#0B2A49" stroke-width="1.85842" stroke-linecap="round" stroke-linejoin="round"/>
</svg>
