<svg width="40" height="40" viewBox="0 0 40 40" fill="none" xmlns="http://www.w3.org/2000/svg">
<path d="M5.83242 34.1671C7.21576 35.5504 9.44909 35.5504 10.8324 34.1671L32.4991 12.5004C33.8824 11.1171 33.8824 8.88372 32.4991 7.50039C31.1158 6.11706 28.8824 6.11706 27.4991 7.50039L5.83242 29.1671C4.44909 30.5504 4.44909 32.7837 5.83242 34.1671Z" stroke="#10B981" stroke-width="2.5" stroke-linecap="round" stroke-linejoin="round"/>
<path d="M30.0176 14.9834L25.0176 9.9834" stroke="#10B981" stroke-width="2.5" stroke-linecap="round" stroke-linejoin="round"/>
<path d="M14.166 4.06634L16.666 3.33301L15.9327 5.83301L16.666 8.33301L14.166 7.59967L11.666 8.33301L12.3993 5.83301L11.666 3.33301L14.166 4.06634Z" stroke="#10B981" stroke-width="2.5" stroke-linecap="round" stroke-linejoin="round"/>
<path d="M7.5 14.0663L10 13.333L9.26667 15.833L10 18.333L7.5 17.5997L5 18.333L5.73333 15.833L5 13.333L7.5 14.0663Z" stroke="#10B981" stroke-width="2.5" stroke-linecap="round" stroke-linejoin="round"/>
<path d="M32.5 22.4003L35 21.667L34.2667 24.167L35 26.667L32.5 25.9337L30 26.667L30.7333 24.167L30 21.667L32.5 22.4003Z" stroke="#10B981" stroke-width="2.5" stroke-linecap="round" stroke-linejoin="round"/>
</svg>
