<svg width="50" height="50" viewBox="0 0 50 50" fill="none" xmlns="http://www.w3.org/2000/svg">
<rect width="50" height="50" rx="5" fill="#82704A"/>
<path d="M27.7273 22.0455V19.7273C28.4773 19.4091 29.2443 19.1705 30.0284 19.0114C30.8125 18.8523 31.6364 18.7727 32.5 18.7727C33.0909 18.7727 33.6705 18.8182 34.2386 18.9091C34.8068 19 35.3636 19.1136 35.9091 19.25V21.4318C35.3636 21.2273 34.8125 21.0739 34.2557 20.9716C33.6989 20.8693 33.1136 20.8182 32.5 20.8182C31.6364 20.8182 30.8068 20.9261 30.0114 21.142C29.2159 21.358 28.4545 21.6591 27.7273 22.0455ZM27.7273 29.5455V27.2273C28.4773 26.9091 29.2443 26.6705 30.0284 26.5114C30.8125 26.3523 31.6364 26.2727 32.5 26.2727C33.0909 26.2727 33.6705 26.3182 34.2386 26.4091C34.8068 26.5 35.3636 26.6136 35.9091 26.75V28.9318C35.3636 28.7273 34.8125 28.5739 34.2557 28.4716C33.6989 28.3693 33.1136 28.3182 32.5 28.3182C31.6364 28.3182 30.8068 28.4205 30.0114 28.625C29.2159 28.8295 28.4545 29.1364 27.7273 29.5455ZM27.7273 25.7955V23.4773C28.4773 23.1591 29.2443 22.9205 30.0284 22.7614C30.8125 22.6023 31.6364 22.5227 32.5 22.5227C33.0909 22.5227 33.6705 22.5682 34.2386 22.6591C34.8068 22.75 35.3636 22.8636 35.9091 23V25.1818C35.3636 24.9773 34.8125 24.8239 34.2557 24.7216C33.6989 24.6193 33.1136 24.5682 32.5 24.5682C31.6364 24.5682 30.8068 24.6761 30.0114 24.892C29.2159 25.108 28.4545 25.4091 27.7273 25.7955ZM17.5 30.3636C18.5682 30.3636 19.608 30.483 20.6193 30.7216C21.6307 30.9602 22.6364 31.3182 23.6364 31.7955V18.3636C22.7045 17.8182 21.7159 17.4091 20.6705 17.1364C19.625 16.8636 18.5682 16.7273 17.5 16.7273C16.6818 16.7273 15.8693 16.8068 15.0625 16.9659C14.2557 17.125 13.4773 17.3636 12.7273 17.6818V31.1818C13.5227 30.9091 14.3125 30.7045 15.0966 30.5682C15.8807 30.4318 16.6818 30.3636 17.5 30.3636ZM26.3636 31.7955C27.3636 31.3182 28.3693 30.9602 29.3807 30.7216C30.392 30.483 31.4318 30.3636 32.5 30.3636C33.3182 30.3636 34.1193 30.4318 34.9034 30.5682C35.6875 30.7045 36.4773 30.9091 37.2727 31.1818V17.6818C36.5227 17.3636 35.7443 17.125 34.9375 16.9659C34.1307 16.8068 33.3182 16.7273 32.5 16.7273C31.4318 16.7273 30.375 16.8636 29.3295 17.1364C28.2841 17.4091 27.2955 17.8182 26.3636 18.3636V31.7955ZM25 35.8182C23.9091 34.9545 22.7273 34.2841 21.4545 33.8068C20.1818 33.3295 18.8636 33.0909 17.5 33.0909C16.5455 33.0909 15.608 33.2159 14.6875 33.4659C13.767 33.7159 12.8864 34.0682 12.0455 34.5227C11.5682 34.7727 11.108 34.7614 10.6648 34.4886C10.2216 34.2159 10 33.8182 10 33.2955V16.8636C10 16.6136 10.0625 16.375 10.1875 16.1477C10.3125 15.9205 10.5 15.75 10.75 15.6364C11.7955 15.0909 12.8864 14.6818 14.0227 14.4091C15.1591 14.1364 16.3182 14 17.5 14C18.8182 14 20.108 14.1705 21.3693 14.5114C22.6307 14.8523 23.8409 15.3636 25 16.0455C26.1591 15.3636 27.3693 14.8523 28.6307 14.5114C29.892 14.1705 31.1818 14 32.5 14C33.6818 14 34.8409 14.1364 35.9773 14.4091C37.1136 14.6818 38.2045 15.0909 39.25 15.6364C39.5 15.75 39.6875 15.9205 39.8125 16.1477C39.9375 16.375 40 16.6136 40 16.8636V33.2955C40 33.8182 39.7784 34.2159 39.3352 34.4886C38.892 34.7614 38.4318 34.7727 37.9545 34.5227C37.1136 34.0682 36.233 33.7159 35.3125 33.4659C34.392 33.2159 33.4545 33.0909 32.5 33.0909C31.1364 33.0909 29.8182 33.3295 28.5455 33.8068C27.2727 34.2841 26.0909 34.9545 25 35.8182Z" fill="white"/>
</svg>
