<svg width="26" height="24" viewBox="0 0 26 24" fill="none" xmlns="http://www.w3.org/2000/svg">
<path d="M8.93105 15.7179L9.28018 15.36L8.93105 15.7179C9.18438 15.965 9.50716 16.08 9.82355 16.08C10.1399 16.08 10.4627 15.965 10.716 15.7179L12.7249 13.7585L14.7338 15.7179C14.9872 15.965 15.31 16.08 15.6263 16.08C15.9427 16.08 16.2655 15.965 16.5188 15.7179C17.0173 15.2317 17.0173 14.4283 16.5188 13.9421L14.5278 12L16.5188 10.0579C17.0173 9.57171 17.0173 8.76829 16.5188 8.28207C16.0273 7.80264 15.2254 7.80264 14.7338 8.28207L12.7249 10.2415L10.716 8.28207C10.2245 7.80264 9.42258 7.80264 8.93105 8.28207C8.43257 8.76829 8.43257 9.57171 8.93105 10.0579L10.9221 12L8.93105 13.9421C8.43257 14.4283 8.43257 15.2317 8.93105 15.7179ZM2.97266 12C2.97266 6.77781 7.34026 2.5 12.7249 2.5C18.1096 2.5 22.4772 6.77781 22.4772 12C22.4772 17.2222 18.1096 21.5 12.7249 21.5C7.34026 21.5 2.97266 17.2222 2.97266 12Z" fill="#8E8E8E" stroke="#B9B9B9"/>
</svg>
