<svg width="40" height="40" viewBox="0 0 40 40" fill="none" xmlns="http://www.w3.org/2000/svg">
<path d="M15.834 22.917C15.834 24.5337 17.084 25.8337 18.6173 25.8337H21.7506C23.084 25.8337 24.1673 24.7004 24.1673 23.2837C24.1673 21.7671 23.5007 21.2171 22.5173 20.8671L17.5007 19.1171C16.5173 18.7671 15.8507 18.2337 15.8507 16.7004C15.8507 15.3004 16.934 14.1504 18.2673 14.1504H21.4006C22.934 14.1504 24.184 15.4504 24.184 17.0671" stroke="#2196F3" stroke-width="2.5" stroke-linecap="round" stroke-linejoin="round"/>
<path d="M20 12.5V27.5" stroke="#2196F3" stroke-width="2.5" stroke-linecap="round" stroke-linejoin="round"/>
<path d="M36.6673 19.9997C36.6673 29.1997 29.2007 36.6663 20.0007 36.6663C10.8007 36.6663 3.33398 29.1997 3.33398 19.9997C3.33398 10.7997 10.8007 3.33301 20.0007 3.33301" stroke="#2196F3" stroke-width="2.5" stroke-linecap="round" stroke-linejoin="round"/>
<path d="M36.6667 9.99967V3.33301H30" stroke="#2196F3" stroke-width="2.5" stroke-linecap="round" stroke-linejoin="round"/>
<path d="M28.334 11.6663L36.6673 3.33301" stroke="#2196F3" stroke-width="2.5" stroke-linecap="round" stroke-linejoin="round"/>
</svg>
