<svg width="50" height="50" viewBox="0 0 50 50" fill="none" xmlns="http://www.w3.org/2000/svg">
<rect width="50" height="50" rx="5" fill="#82704A"/>
<path d="M20 35C19.3125 35 18.724 34.7552 18.2344 34.2656C17.7448 33.776 17.5 33.1875 17.5 32.5V28.75H21.25V25.9375C20.5208 25.8958 19.8281 25.7344 19.1719 25.4531C18.5156 25.1719 17.9167 24.75 17.375 24.1875V22.8125H15.9375L11.875 18.75C12.625 17.7917 13.5521 17.1146 14.6562 16.7188C15.7604 16.3229 16.875 16.125 18 16.125C18.5625 16.125 19.1094 16.1667 19.6406 16.25C20.1719 16.3333 20.7083 16.4896 21.25 16.7188V15H36.25V31.25C36.25 32.2917 35.8854 33.1771 35.1562 33.9062C34.4271 34.6354 33.5417 35 32.5 35H20ZM23.75 28.75H31.25V31.25C31.25 31.6042 31.3698 31.901 31.6094 32.1406C31.849 32.3802 32.1458 32.5 32.5 32.5C32.8542 32.5 33.151 32.3802 33.3906 32.1406C33.6302 31.901 33.75 31.6042 33.75 31.25V17.5H23.75V18.25L31.25 25.75V27.5H29.5L25.9375 23.9375L25.6875 24.1875C25.3958 24.4792 25.0885 24.7396 24.7656 24.9688C24.4427 25.1979 24.1042 25.375 23.75 25.5V28.75ZM17 20.3125H19.875V23C20.125 23.1667 20.3854 23.2812 20.6562 23.3438C20.9271 23.4062 21.2083 23.4375 21.5 23.4375C21.9792 23.4375 22.4115 23.3646 22.7969 23.2188C23.1823 23.0729 23.5625 22.8125 23.9375 22.4375L24.1875 22.1875L22.4375 20.4375C21.8333 19.8333 21.1562 19.3802 20.4062 19.0781C19.6562 18.776 18.8542 18.625 18 18.625C17.5833 18.625 17.1875 18.6562 16.8125 18.7188C16.4375 18.7812 16.0625 18.875 15.6875 19L17 20.3125ZM28.75 31.25H20V32.5H28.9375C28.875 32.3125 28.8281 32.1146 28.7969 31.9062C28.7656 31.6979 28.75 31.4792 28.75 31.25Z" fill="white"/>
</svg>
