<svg width="28" height="24" viewBox="0 0 28 24" fill="none" xmlns="http://www.w3.org/2000/svg">
<path d="M20.25 23.5625H7.75C3.1875 23.5625 0.5625 20.9375 0.5625 16.375V7.625C0.5625 3.0625 3.1875 0.4375 7.75 0.4375H20.25C24.8125 0.4375 27.4375 3.0625 27.4375 7.625V16.375C27.4375 20.9375 24.8125 23.5625 20.25 23.5625ZM7.75 2.3125C4.175 2.3125 2.4375 4.05 2.4375 7.625V16.375C2.4375 19.95 4.175 21.6875 7.75 21.6875H20.25C23.825 21.6875 25.5625 19.95 25.5625 16.375V7.625C25.5625 4.05 23.825 2.3125 20.25 2.3125H7.75Z" fill="#7B7045"/>
</svg>
