<svg width="22" height="22" viewBox="0 0 22 22" fill="none" xmlns="http://www.w3.org/2000/svg">
<g clip-path="url(#clip0_461_15010)">
<path d="M7.00542 17.5632V8.58279H3.95627V17.5632H7.00542ZM5.48124 7.35593C6.54453 7.35593 7.20638 6.66634 7.20638 5.80458C7.18657 4.92338 6.54457 4.25293 5.50142 4.25293C4.45842 4.25293 3.77637 4.9234 3.77637 5.80458C3.77637 6.66638 4.43805 7.35593 5.46133 7.35593H5.48114H5.48124ZM8.69312 17.5632H11.7423V12.5481C11.7423 12.2797 11.7621 12.0116 11.8426 11.8197C12.063 11.2835 12.5647 10.7281 13.4071 10.7281C14.5104 10.7281 14.9518 11.5516 14.9518 12.7588V17.5632H18.0008V12.4139C18.0008 9.65543 16.4965 8.37196 14.4903 8.37196C12.8454 8.37196 12.1232 9.27203 11.722 9.88506H11.7423V8.58261H8.69319C8.73321 9.42528 8.69319 17.563 8.69319 17.563L8.69312 17.5632Z" fill="white"/>
</g>
<defs>
<clipPath id="clip0_461_15010">
<rect width="14.2222" height="13.3103" fill="white" transform="translate(3.77539 4.25293)"/>
</clipPath>
</defs>
</svg>
