<svg width="40" height="40" viewBox="0 0 40 40" fill="none" xmlns="http://www.w3.org/2000/svg">
<path d="M35 11.6668V28.3335C35 33.3335 32.5 36.6668 26.6667 36.6668H13.3333C7.5 36.6668 5 33.3335 5 28.3335V11.6668C5 6.66683 7.5 3.3335 13.3333 3.3335H26.6667C32.5 3.3335 35 6.66683 35 11.6668Z" stroke="#7B7045" stroke-width="2.5" stroke-miterlimit="10" stroke-linecap="round" stroke-linejoin="round"/>
<path d="M25.8327 3.3335V16.4335C25.8327 17.1668 24.966 17.5335 24.4326 17.0501L20.5661 13.4835C20.2494 13.1835 19.7493 13.1835 19.4326 13.4835L15.5661 17.0501C15.0327 17.5335 14.166 17.1668 14.166 16.4335V3.3335H25.8327Z" stroke="#7B7045" stroke-width="2.5" stroke-miterlimit="10" stroke-linecap="round" stroke-linejoin="round"/>
<path d="M22.084 23.3335H29.1673" stroke="#7B7045" stroke-width="2.5" stroke-miterlimit="10" stroke-linecap="round" stroke-linejoin="round"/>
<path d="M15 30H29.1667" stroke="#7B7045" stroke-width="2.5" stroke-miterlimit="10" stroke-linecap="round" stroke-linejoin="round"/>
</svg>
