<svg width="50" height="50" viewBox="0 0 50 50" fill="none" xmlns="http://www.w3.org/2000/svg">
<rect width="50" height="50" rx="5" fill="#82704A"/>
<path d="M24.9062 24.9077C28.3365 24.9077 31.1172 22.1267 31.1172 18.6962C31.1172 15.2656 28.3365 12.4846 24.9062 12.4846C21.476 12.4846 18.6953 15.2656 18.6953 18.6962C18.6953 22.1267 21.476 24.9077 24.9062 24.9077Z" stroke="white" stroke-width="2.5" stroke-linecap="round" stroke-linejoin="round"/>
<path d="M33.8621 29.5539L29.4647 33.9517C29.2908 34.1257 29.1294 34.4486 29.0921 34.6847L28.8561 36.3618C28.7691 36.9705 29.1915 37.3929 29.8001 37.3059L31.4771 37.0699C31.7131 37.0326 32.0485 36.8711 32.21 36.6972L36.6073 32.2994C37.365 31.5416 37.7253 30.6596 36.6073 29.5415C35.5018 28.4358 34.6199 28.7961 33.8621 29.5539Z" stroke="white" stroke-width="2.5" stroke-miterlimit="10" stroke-linecap="round" stroke-linejoin="round"/>
<path d="M33.2285 30.1875C33.6012 31.5292 34.6446 32.5727 35.9861 32.9454" stroke="white" stroke-width="2.5" stroke-miterlimit="10" stroke-linecap="round" stroke-linejoin="round"/>
<path d="M14.2363 37.3308C14.2363 32.5231 19.0188 28.6346 24.9068 28.6346C26.1986 28.6346 27.4408 28.821 28.596 29.1688" stroke="white" stroke-width="2.5" stroke-linecap="round" stroke-linejoin="round"/>
</svg>
