<svg width="40" height="40" viewBox="0 0 40 40" fill="none" xmlns="http://www.w3.org/2000/svg">
<path d="M16.6673 9.99967H23.334C26.6673 9.99967 26.6673 8.33301 26.6673 6.66634C26.6673 3.33301 25.0007 3.33301 23.334 3.33301H16.6673C15.0007 3.33301 13.334 3.33301 13.334 6.66634C13.334 9.99967 15.0007 9.99967 16.6673 9.99967Z" stroke="#7B7045" stroke-width="2.5" stroke-miterlimit="10" stroke-linecap="round" stroke-linejoin="round"/>
<path d="M23.3333 36.6664H15C6.66667 36.6664 5 33.333 5 26.6664V16.6664C5 9.06637 7.78333 6.99971 13.3333 6.69971" stroke="#7B7045" stroke-width="2.5" stroke-miterlimit="10" stroke-linecap="round" stroke-linejoin="round"/>
<path d="M26.666 6.7002C32.216 7.0002 34.9993 9.0502 34.9993 16.6669V25.0002" stroke="#7B7045" stroke-width="2.5" stroke-miterlimit="10" stroke-linecap="round" stroke-linejoin="round"/>
<path d="M25 31.667V26.667H30" stroke="#7B7045" stroke-width="2.5" stroke-miterlimit="10" stroke-linecap="round" stroke-linejoin="round"/>
<path d="M34.9978 36.6667L25.0645 26.7334" stroke="#7B7045" stroke-width="2.5" stroke-miterlimit="10" stroke-linecap="round" stroke-linejoin="round"/>
</svg>
