<svg width="24" height="28" viewBox="0 0 24 28" fill="none" xmlns="http://www.w3.org/2000/svg">
<path d="M12.0001 27.45C10.1501 27.45 8.2876 26.75 6.8376 25.3625C3.1501 21.8125 -0.924902 16.15 0.612598 9.4125C2.0001 3.3 7.3376 0.5625 12.0001 0.5625C12.0001 0.5625 12.0001 0.5625 12.0126 0.5625C16.6751 0.5625 22.0126 3.3 23.4001 9.425C24.9251 16.1625 20.8501 21.8125 17.1626 25.3625C15.7126 26.75 13.8501 27.45 12.0001 27.45ZM12.0001 2.4375C8.3626 2.4375 3.6876 4.375 2.4501 9.825C1.1001 15.7125 4.8001 20.7875 8.1501 24C10.3126 26.0875 13.7001 26.0875 15.8626 24C19.2001 20.7875 22.9001 15.7125 21.5751 9.825C20.3251 4.375 15.6376 2.4375 12.0001 2.4375Z" fill="#7B7045"/>
</svg>
