<svg width="50" height="50" viewBox="0 0 50 50" fill="none" xmlns="http://www.w3.org/2000/svg">
<rect width="50" height="50" rx="5" fill="#82704A"/>
<g clip-path="url(#clip0_461_14785)">
<path d="M36.7188 13.9375C36.3964 13.729 36.0278 13.6029 35.6453 13.5702C35.2627 13.5375 34.8781 13.5992 34.525 13.75L22.9562 18.3063C22.6824 18.4178 22.3895 18.4751 22.0938 18.475H14.6875C14.0659 18.475 13.4698 18.722 13.0302 19.1615C12.5907 19.6011 12.3438 20.1972 12.3438 20.8188V21.0063H10V26.6313H12.3438V26.875C12.3584 27.4868 12.6118 28.0686 13.0498 28.4961C13.4877 28.9235 14.0755 29.1627 14.6875 29.1625L17.5 35.125C17.6904 35.5266 17.9903 35.8662 18.3651 36.105C18.7398 36.3438 19.1744 36.4721 19.6188 36.475H20.8C21.4183 36.4701 22.0097 36.221 22.4452 35.782C22.8807 35.343 23.125 34.7497 23.125 34.1313V29.3875L34.525 33.9438C34.8054 34.0554 35.1045 34.1126 35.4062 34.1125C35.8745 34.105 36.3304 33.9617 36.7188 33.7C37.0271 33.4918 37.2815 33.2132 37.4609 32.8871C37.6402 32.5611 37.7393 32.197 37.75 31.825V15.8688C37.7483 15.4873 37.6534 15.1119 37.4737 14.7754C37.294 14.4388 37.0349 14.1512 36.7188 13.9375ZM20.7812 20.8188V26.875H14.6875V20.8188H20.7812ZM20.7812 34.1313H19.6L17.2938 29.1625H20.7812V34.1313ZM23.8187 27.1563C23.5961 27.0425 23.364 26.9484 23.125 26.875V20.6875C23.3617 20.6387 23.5938 20.5697 23.8187 20.4813L35.4062 15.8688V31.7688L23.8187 27.1563ZM37.8062 21.475V26.1625C38.4279 26.1625 39.024 25.9156 39.4635 25.4761C39.9031 25.0365 40.15 24.4404 40.15 23.8188C40.15 23.1972 39.9031 22.6011 39.4635 22.1615C39.024 21.722 38.4279 21.475 37.8062 21.475Z" fill="white"/>
</g>
<defs>
<clipPath id="clip0_461_14785">
<rect width="30" height="30" fill="white" transform="translate(10 10)"/>
</clipPath>
</defs>
</svg>
