<svg width="50" height="50" viewBox="0 0 50 50" fill="none" xmlns="http://www.w3.org/2000/svg">
<rect width="50" height="50" rx="5" fill="#82704A"/>
<path d="M27.5 37.5V33.6562L34.4062 26.7812C34.5938 26.5938 34.8021 26.4583 35.0312 26.375C35.2604 26.2917 35.4896 26.25 35.7188 26.25C35.9688 26.25 36.2083 26.2969 36.4375 26.3906C36.6667 26.4844 36.875 26.625 37.0625 26.8125L38.2188 27.9688C38.3854 28.1562 38.5156 28.3646 38.6094 28.5938C38.7031 28.8229 38.75 29.0521 38.75 29.2812C38.75 29.5104 38.7083 29.7448 38.625 29.9844C38.5417 30.224 38.4062 30.4375 38.2188 30.625L31.3438 37.5H27.5ZM29.375 35.625H30.5625L34.3438 31.8125L33.7812 31.2188L33.1875 30.6562L29.375 34.4375V35.625ZM17.5 37.5C16.8125 37.5 16.224 37.2552 15.7344 36.7656C15.2448 36.276 15 35.6875 15 35V15C15 14.3125 15.2448 13.724 15.7344 13.2344C16.224 12.7448 16.8125 12.5 17.5 12.5H27.5L35 20V23.75H32.5V21.25H26.25V15H17.5V35H25V37.5H17.5ZM33.7812 31.2188L33.1875 30.6562L34.3438 31.8125L33.7812 31.2188Z" fill="white"/>
</svg>
