<svg width="40" height="40" viewBox="0 0 40 40" fill="none" xmlns="http://www.w3.org/2000/svg">
<path d="M13.9668 19.9999L17.9835 24.0332L26.0335 15.9666" stroke="#FFC107" stroke-width="2.5" stroke-linecap="round" stroke-linejoin="round"/>
<path d="M17.9168 4.08345C19.0668 3.10011 20.9501 3.10011 22.1168 4.08345L24.7501 6.35011C25.2501 6.78345 26.1835 7.13345 26.8501 7.13345H29.6835C31.4501 7.13345 32.9001 8.58345 32.9001 10.3501V13.1834C32.9001 13.8334 33.2501 14.7834 33.6835 15.2834L35.9501 17.9168C36.9335 19.0668 36.9335 20.9501 35.9501 22.1168L33.6835 24.7501C33.2501 25.2501 32.9001 26.1834 32.9001 26.8501V29.6834C32.9001 31.4501 31.4501 32.9001 29.6835 32.9001H26.8501C26.2001 32.9001 25.2501 33.2501 24.7501 33.6834L22.1168 35.9501C20.9668 36.9334 19.0835 36.9334 17.9168 35.9501L15.2835 33.6834C14.7835 33.2501 13.8501 32.9001 13.1835 32.9001H10.3001C8.53346 32.9001 7.08346 31.4501 7.08346 29.6834V26.8334C7.08346 26.1834 6.73346 25.2501 6.3168 24.7501L4.0668 22.1001C3.10013 20.9501 3.10013 19.0834 4.0668 17.9334L6.3168 15.2834C6.73346 14.7834 7.08346 13.8501 7.08346 13.2001V10.3334C7.08346 8.56678 8.53346 7.11678 10.3001 7.11678H13.1835C13.8335 7.11678 14.7835 6.76678 15.2835 6.33345L17.9168 4.08345Z" stroke="#FFC107" stroke-width="2.5" stroke-linecap="round" stroke-linejoin="round"/>
</svg>
