<svg width="40" height="40" viewBox="0 0 40 40" fill="none" xmlns="http://www.w3.org/2000/svg">
<path d="M19.8327 36.6667L27.416 16.6667H30.916L38.4994 36.6667H34.9994L33.2077 31.5833H25.1243L23.3327 36.6667H19.8327ZM6.66602 31.6667L4.33268 29.3333L12.7493 20.9167C11.7771 19.9445 10.8952 18.8333 10.1035 17.5833C9.31185 16.3333 8.58268 14.9167 7.91602 13.3333H11.416C11.9716 14.4167 12.5271 15.3611 13.0827 16.1667C13.6382 16.9722 14.3049 17.7778 15.0827 18.5833C15.9993 17.6667 16.9507 16.382 17.9368 14.7292C18.923 13.0764 19.666 11.5 20.166 10H1.66602V6.66668H13.3327V3.33334H16.666V6.66668H28.3327V10H23.4993C22.916 12 22.041 14.0556 20.8743 16.1667C19.7077 18.2778 18.5549 19.8889 17.416 21L21.416 25.0833L20.166 28.5L15.0827 23.2917L6.66602 31.6667ZM26.166 28.6667H32.166L29.166 20.1667L26.166 28.6667Z" fill="#4C8BF5"/>
</svg>
