<svg width="40" height="40" viewBox="0 0 40 40" fill="none" xmlns="http://www.w3.org/2000/svg">
<path d="M18.5007 31.6667H21.4173V29.5833C22.8062 29.3333 24.0007 28.7917 25.0007 27.9583C26.0007 27.125 26.5007 25.8889 26.5007 24.25C26.5007 23.0833 26.1673 22.0139 25.5007 21.0417C24.834 20.0695 23.5007 19.2222 21.5007 18.5C19.834 17.9445 18.6812 17.4583 18.0423 17.0417C17.4034 16.625 17.084 16.0556 17.084 15.3333C17.084 14.6111 17.3409 14.0417 17.8548 13.625C18.3687 13.2083 19.1118 13 20.084 13C20.9729 13 21.6673 13.2153 22.1673 13.6458C22.6673 14.0764 23.0284 14.6111 23.2507 15.25L25.9173 14.1667C25.6118 13.1945 25.0493 12.3472 24.2298 11.625C23.4104 10.9028 22.5007 10.5 21.5007 10.4167V8.33334H18.584V10.4167C17.1951 10.7222 16.1118 11.3333 15.334 12.25C14.5562 13.1667 14.1673 14.1945 14.1673 15.3333C14.1673 16.6389 14.5493 17.6945 15.3132 18.5C16.077 19.3056 17.2784 20 18.9173 20.5833C20.6673 21.2222 21.8826 21.7917 22.5632 22.2917C23.2437 22.7917 23.584 23.4445 23.584 24.25C23.584 25.1667 23.2576 25.8403 22.6048 26.2708C21.952 26.7014 21.1673 26.9167 20.2507 26.9167C19.334 26.9167 18.5215 26.632 17.8132 26.0625C17.1048 25.4931 16.584 24.6389 16.2507 23.5L13.5007 24.5833C13.8895 25.9167 14.4937 26.9931 15.3132 27.8125C16.1326 28.632 17.1951 29.1945 18.5007 29.5V31.6667ZM20.0007 36.6667C17.6951 36.6667 15.5284 36.2292 13.5007 35.3542C11.4729 34.4792 9.70898 33.2917 8.20898 31.7917C6.70898 30.2917 5.52148 28.5278 4.64648 26.5C3.77148 24.4722 3.33398 22.3056 3.33398 20C3.33398 17.6945 3.77148 15.5278 4.64648 13.5C5.52148 11.4722 6.70898 9.70834 8.20898 8.20834C9.70898 6.70834 11.4729 5.52084 13.5007 4.64584C15.5284 3.77084 17.6951 3.33334 20.0007 3.33334C22.3062 3.33334 24.4729 3.77084 26.5007 4.64584C28.5284 5.52084 30.2923 6.70834 31.7923 8.20834C33.2923 9.70834 34.4798 11.4722 35.3548 13.5C36.2298 15.5278 36.6673 17.6945 36.6673 20C36.6673 22.3056 36.2298 24.4722 35.3548 26.5C34.4798 28.5278 33.2923 30.2917 31.7923 31.7917C30.2923 33.2917 28.5284 34.4792 26.5007 35.3542C24.4729 36.2292 22.3062 36.6667 20.0007 36.6667ZM20.0007 33.3333C23.7229 33.3333 26.8757 32.0417 29.459 29.4583C32.0423 26.875 33.334 23.7222 33.334 20C33.334 16.2778 32.0423 13.125 29.459 10.5417C26.8757 7.95834 23.7229 6.66668 20.0007 6.66668C16.2784 6.66668 13.1257 7.95834 10.5423 10.5417C7.95898 13.125 6.66732 16.2778 6.66732 20C6.66732 23.7222 7.95898 26.875 10.5423 29.4583C13.1257 32.0417 16.2784 33.3333 20.0007 33.3333Z" fill="#4C8BF5"/>
</svg>
