<svg width="40" height="40" viewBox="0 0 40 40" fill="none" xmlns="http://www.w3.org/2000/svg">
<path d="M29.9988 11.9333C29.8988 11.9166 29.7822 11.9166 29.6822 11.9333C27.3822 11.8499 25.5488 9.96659 25.5488 7.63325C25.5488 5.24992 27.4655 3.33325 29.8488 3.33325C32.2322 3.33325 34.1488 5.26659 34.1488 7.63325C34.1322 9.96659 32.2988 11.8499 29.9988 11.9333Z" stroke="#4C8BF5" stroke-width="2.5" stroke-linecap="round" stroke-linejoin="round"/>
<path d="M28.2805 24.0666C30.5638 24.4499 33.0805 24.0499 34.8471 22.8666C37.1971 21.2999 37.1971 18.7333 34.8471 17.1666C33.0638 15.9833 30.5138 15.5833 28.2305 15.9833" stroke="#4C8BF5" stroke-width="2.5" stroke-linecap="round" stroke-linejoin="round"/>
<path d="M9.94883 11.9333C10.0488 11.9166 10.1655 11.9166 10.2655 11.9333C12.5655 11.8499 14.3988 9.96659 14.3988 7.63325C14.3988 5.24992 12.4822 3.33325 10.0988 3.33325C7.7155 3.33325 5.79883 5.26659 5.79883 7.63325C5.81549 9.96659 7.64883 11.8499 9.94883 11.9333Z" stroke="#4C8BF5" stroke-width="2.5" stroke-linecap="round" stroke-linejoin="round"/>
<path d="M11.6671 24.0666C9.38372 24.45 6.86706 24.05 5.10039 22.8666C2.75039 21.3 2.75039 18.7333 5.10039 17.1666C6.88372 15.9833 9.43372 15.5833 11.7171 15.9833" stroke="#4C8BF5" stroke-width="2.5" stroke-linecap="round" stroke-linejoin="round"/>
<path d="M20.0008 24.3833C19.9008 24.3666 19.7841 24.3666 19.6841 24.3833C17.3841 24.3 15.5508 22.4166 15.5508 20.0833C15.5508 17.7 17.4674 15.7833 19.8508 15.7833C22.2341 15.7833 24.1508 17.7166 24.1508 20.0833C24.1341 22.4166 22.3008 24.3166 20.0008 24.3833Z" stroke="#4C8BF5" stroke-width="2.5" stroke-linecap="round" stroke-linejoin="round"/>
<path d="M15.1512 29.6333C12.8012 31.2 12.8012 33.7666 15.1512 35.3333C17.8178 37.1166 22.1845 37.1166 24.8512 35.3333C27.2012 33.7666 27.2012 31.2 24.8512 29.6333C22.2012 27.8666 17.8178 27.8666 15.1512 29.6333Z" stroke="#4C8BF5" stroke-width="2.5" stroke-linecap="round" stroke-linejoin="round"/>
</svg>
