<svg width="40" height="40" viewBox="0 0 40 40" fill="none" xmlns="http://www.w3.org/2000/svg">
<path d="M19.9993 20C24.6017 20 28.3327 16.269 28.3327 11.6666C28.3327 7.06427 24.6017 3.33331 19.9993 3.33331C15.397 3.33331 11.666 7.06427 11.666 11.6666C11.666 16.269 15.397 20 19.9993 20Z" stroke="#7B7045" stroke-width="2.5" stroke-linecap="round" stroke-linejoin="round"/>
<path d="M32.0171 26.2334L26.117 32.1334C25.8837 32.3668 25.667 32.8 25.617 33.1167L25.3004 35.3667C25.1837 36.1833 25.7504 36.75 26.5671 36.6334L28.817 36.3167C29.1337 36.2667 29.5837 36.05 29.8004 35.8167L35.7004 29.9167C36.717 28.9001 37.2004 27.7167 35.7004 26.2167C34.217 24.7333 33.0338 25.2167 32.0171 26.2334Z" stroke="#7B7045" stroke-width="2.5" stroke-miterlimit="10" stroke-linecap="round" stroke-linejoin="round"/>
<path d="M31.168 27.0833C31.668 28.8833 33.0679 30.2833 34.8679 30.7833" stroke="#7B7045" stroke-width="2.5" stroke-miterlimit="10" stroke-linecap="round" stroke-linejoin="round"/>
<path d="M5.68359 36.6667C5.68359 30.2167 12.1003 25 20.0003 25C21.7336 25 23.4003 25.25 24.9503 25.7167" stroke="#7B7045" stroke-width="2.5" stroke-linecap="round" stroke-linejoin="round"/>
</svg>
